<svg width="279" height="174" viewBox="0 0 279 174" fill="none" xmlns="http://www.w3.org/2000/svg">
<rect width="123.445" height="121.575" rx="3" transform="matrix(0.707072 0.707142 -0.707072 0.707142 121.551 0)" fill="#F8D162"/>
<path d="M123.285 52.3815C95.0728 50.9924 75.6862 74.5684 69.5195 86.5301C76.2644 98.4917 96.4603 122.068 123.285 120.679C150.111 119.289 167.994 97.3341 173.583 86.5301C168.572 75.726 151.498 53.7706 123.285 52.3815Z" fill="white"/>
<ellipse cx="121.555" cy="86.5298" rx="24.2814" ry="24.3091" fill="#FF8585"/>
<rect width="50.9427" height="50.9427" rx="3" transform="matrix(0.706703 -0.70751 0.706703 0.70751 194.445 137.958)" fill="#FF8585"/>
<rect y="110.62" width="58.9941" height="57.0594" rx="28.5297" fill="#8CDD94"/>
<rect width="26.9628" height="26.9923" rx="13.4814" transform="matrix(0.989411 0.14514 -0.144816 0.989459 191.582 20.6118)" fill="#8CDD94"/>
<path d="M245.971 38.3388C246.145 38.1652 246.426 38.1652 246.599 38.3388L277.688 69.4633C277.862 69.6369 277.862 69.9184 277.688 70.092L262.144 85.6543C253.385 94.4227 239.185 94.4227 230.427 85.6543C221.668 76.8858 221.668 62.6694 230.427 53.901L245.971 38.3388Z" fill="#C8D1FF"/>
</svg>
