<svg width="570" height="199" viewBox="0 0 570 199" fill="none" xmlns="http://www.w3.org/2000/svg">
<path d="M295.045 175.23C293.875 174.057 293.875 172.156 295.045 170.983L316.647 149.337C317.818 148.164 319.715 148.164 320.886 149.337L342.488 170.983C343.658 172.156 343.658 174.057 342.488 175.23L320.886 196.877C319.715 198.049 317.818 198.049 316.647 196.877L295.045 175.23Z" fill="#C8D1FF"/>
<path d="M360.687 147.774C360.687 148.226 360.32 148.594 359.868 148.594L277.321 148.594C276.868 148.594 276.501 148.226 276.501 147.774L276.501 107.877C276.501 84.6293 295.347 65.7835 318.594 65.7835C341.842 65.7835 360.687 84.6293 360.687 107.877L360.687 147.774Z" fill="#F8D162"/>
<path d="M348.477 13.3027C348.593 13.222 348.753 13.2508 348.833 13.367L363.265 34.2061C363.346 34.3223 363.317 34.4819 363.201 34.5626L352.81 41.7879C346.947 45.8649 338.898 44.4107 334.833 38.54C330.767 32.6692 332.224 24.605 338.087 20.5281L348.477 13.3027Z" fill="#FF8585"/>
<path d="M337.512 47.9831C337.512 57.814 329.385 65.7834 319.361 65.7834C309.337 65.7834 301.211 57.814 301.211 47.9831C301.211 38.1523 309.337 30.1829 319.361 30.1829C329.385 30.1829 337.512 38.1523 337.512 47.9831Z" fill="#8CDD94"/>
<path d="M508.654 58.4084C507.484 57.2356 507.484 55.3342 508.654 54.1614L521.197 41.5936C522.367 40.4208 524.265 40.4208 525.435 41.5936L537.977 54.1614C539.148 55.3342 539.148 57.2356 537.977 58.4084L525.435 70.9763C524.265 72.149 522.367 72.149 521.197 70.9763L508.654 58.4084Z" fill="#C8D1FF"/>
<path d="M476.543 118.798C476.543 92.9909 497.464 71.9752 523.27 71.9752C549.077 71.9752 569.998 92.9909 569.998 118.798C569.998 144.605 549.077 165.62 523.27 165.62C497.464 165.62 476.543 144.605 476.543 118.798Z" fill="#8CDD94"/>
<path d="M540.648 197.803C540.648 197.981 540.504 198.125 540.327 198.125L506.987 198.125C506.809 198.125 506.665 197.981 506.665 197.803L506.665 182.612C506.665 173.227 514.272 165.62 523.657 165.62C533.041 165.62 540.648 173.227 540.648 182.612L540.648 197.803Z" fill="#FF8585"/>
<path d="M201.582 130.698C201.582 129.041 202.925 127.698 204.582 127.698H225.614C227.271 127.698 228.614 129.041 228.614 130.698V195.899C228.614 197.555 227.271 198.899 225.614 198.899H204.582C202.925 198.899 201.582 197.555 201.582 195.899V130.698Z" fill="#8CDD94"/>
<path d="M190.122 96.7666C191.532 95.8975 193.378 96.3376 194.245 97.7498L200.353 107.704C201.22 109.116 200.779 110.965 199.368 111.834L189.439 117.952C188.029 118.821 186.183 118.381 185.316 116.969L179.208 107.015C178.341 105.603 178.782 103.754 180.193 102.885L190.122 96.7666Z" fill="#C8D1FF"/>
<path d="M200.039 113.38C200.039 105.489 206.436 99.0625 214.328 99.0625C222.219 99.0625 228.616 105.489 228.616 113.38C228.616 121.271 222.219 127.698 214.328 127.698C206.436 127.698 200.039 121.271 200.039 113.38Z" fill="#FF8585"/>
<path d="M413.725 185.276C412.554 184.103 412.554 182.202 413.725 181.029L424.095 170.637C425.266 169.464 427.163 169.464 428.334 170.637L438.705 181.029C439.875 182.202 439.875 184.103 438.705 185.276L428.334 195.668C427.163 196.84 425.266 196.84 424.095 195.668L413.725 185.276Z" fill="#8CDD94"/>
<path d="M444.102 169.153C444.102 169.339 443.951 169.49 443.764 169.49L408.91 169.49C408.724 169.49 408.573 169.339 408.573 169.153L408.573 153.201C408.573 143.39 416.527 135.437 426.337 135.437C436.148 135.437 444.102 143.39 444.102 153.201L444.102 169.153Z" fill="#F8D162"/>
<path d="M74.8731 63.7187C73.7027 62.5459 73.7027 60.6445 74.8731 59.4717L103.997 30.2882C105.168 29.1154 107.065 29.1154 108.236 30.2882L137.36 59.4717C138.53 60.6445 138.53 62.5459 137.36 63.7187L108.236 92.9022C107.065 94.075 105.168 94.075 103.997 92.9022L74.8731 63.7187Z" fill="#FF8585"/>
<path d="M92.6836 98.1929C92.6836 96.536 94.0267 95.1929 95.6836 95.1929H116.716C118.373 95.1929 119.716 96.536 119.716 98.1929L119.716 195.899C119.716 197.556 118.373 198.899 116.716 198.899H95.6836C94.0267 198.899 92.6836 197.556 92.6836 195.899L92.6836 98.1929Z" fill="#F8D162"/>
<path d="M121.262 15.0915C121.262 23.4264 114.519 30.1831 106.202 30.1831C97.8836 30.1831 91.1406 23.4264 91.1406 15.0915C91.1406 6.75671 97.8836 0 106.202 0C114.519 0 121.262 6.75671 121.262 15.0915Z" fill="#C8D1FF"/>
<path d="M13.9023 138.92C13.9023 131.455 19.9537 125.376 27.4185 125.376C34.8833 125.376 40.9347 131.455 40.9347 138.92C40.9347 146.384 34.8833 152.463 27.4185 152.463C19.9537 152.463 13.9023 146.384 13.9023 138.92Z" fill="#8CDD94"/>
<path d="M43.5876 152.463C43.8283 152.463 44.0234 152.659 44.0234 152.899L44.0234 197.689C44.0234 197.93 43.8283 198.125 43.5876 198.125L22.8301 198.125C10.221 198.125 -0.000699636 187.903 -0.000699086 175.294C-0.000698535 162.685 10.221 152.463 22.8301 152.463L43.5876 152.463Z" fill="#C8D1FF"/>
</svg>
