<svg width="252" height="46" viewBox="0 0 252 46" fill="none" xmlns="http://www.w3.org/2000/svg">
<path d="M48.7206 29.5573C48.9034 37.2088 32.6791 41.8088 23.2188 45.9533C23.2188 45.9533 42.3223 41.6722 49.0862 35.7058C53.3823 31.9256 52.9252 22.0425 41.7739 23.591C41.6825 23.591 41.4083 24.0009 41.3169 24.0009C41.3169 24.0009 48.6292 24.5474 48.7206 29.5573Z" fill="#224CFF"/>
<path d="M11.8854 15.2574C11.0627 15.0297 10.103 14.7564 9.05184 14.5287L8.73193 13.2079C8.73193 13.2079 29.8464 23.3188 52.5147 0.819802C52.9717 0.364356 53.3374 0 53.3374 0C53.3374 0 53.0631 1.27525 53.1088 1.2297C53.1088 1.2297 52.1491 1.91287 50.9608 3.50693C49.087 6.05743 47.259 10.9307 50.321 20.1762L49.3156 20.8594C49.3156 20.8594 48.5843 14.5743 45.3395 16.4871C43.5571 17.5347 42.5973 23.6376 42.5973 23.6376L41.1348 24.0475C41.1348 24.0475 46.0707 10.1564 37.8443 12.3881C30.4862 14.3921 27.0128 20.4495 24.6363 45.499C24.6363 45.6812 23.2196 45.9545 23.2196 45.9545C23.2196 45.9545 25.3219 32.2911 19.1063 32.6099C14.0334 32.8376 5.16715 45.5901 5.16715 45.5901H3.15625C3.20195 45.5901 27.15 19.402 11.8854 15.2574Z" fill="#224CFF"/>
<path d="M24.1297 14.0282C26.0035 14.0282 27.9687 12.2975 28.5172 10.1569C29.0656 8.01634 28.0601 6.28564 26.1863 6.28564C24.3126 6.28564 22.3474 8.01634 21.7989 10.1569C21.2048 12.2975 22.2559 14.0282 24.1297 14.0282Z" fill="#224CFF"/>
<path d="M48.7206 29.5573C48.9034 37.2088 32.6791 41.8088 23.2188 45.9533C23.2188 45.9533 42.3223 41.6722 49.0862 35.7058C53.3823 31.9256 52.9252 22.0425 41.7739 23.591C41.6825 23.591 41.4083 24.0009 41.3169 24.0009C41.3169 24.0009 48.6292 24.5474 48.7206 29.5573Z" fill="#224CFF"/>
<path d="M11.8854 15.2574C11.0627 15.0297 10.103 14.7564 9.05184 14.5287L8.73193 13.2079C8.73193 13.2079 29.8464 23.3188 52.5147 0.819802C52.9717 0.364356 53.2916 0 53.2916 0C53.2916 0 53.0174 1.27525 53.0631 1.2297C53.0631 1.2297 52.1034 1.91287 50.9151 3.50693C49.0413 6.05743 47.2132 10.9307 50.2753 20.1762L49.2699 20.8594C49.2699 20.8594 48.5386 14.5743 45.2938 16.4871C43.5114 17.5347 42.5516 23.6376 42.5516 23.6376L41.1348 24.0475C41.1348 24.0475 46.0707 10.1564 37.8443 12.3881C30.5319 14.4376 27.0585 20.4495 24.6363 45.5446C24.6363 45.7267 23.2196 46 23.2196 46C23.2196 46 25.3219 32.3366 19.1063 32.6554C14.0334 32.8832 5.16715 45.6356 5.16715 45.6356H3.15625C3.20195 45.5901 27.1499 19.402 11.8854 15.2574Z" fill="#224CFF"/>
<path d="M24.1297 14.0282C26.0035 14.0282 27.9687 12.2975 28.5172 10.1569C29.0656 8.01634 28.0601 6.28564 26.1863 6.28564C24.3126 6.28564 22.3474 8.01634 21.7989 10.1569C21.2048 12.2975 22.2559 14.0282 24.1297 14.0282Z" fill="#224CFF"/>
<path d="M43.4172 6.74041C44.8339 6.19387 45.7937 4.55427 45.5652 3.09684C45.3367 1.59387 43.9656 0.86516 42.5488 1.36615C41.1321 1.91269 40.1723 3.55229 40.4008 5.00972C40.6293 6.51269 41.9547 7.28694 43.4172 6.74041Z" fill="#224CFF"/>
<path d="M2.28555 44.5878C2.28555 45.2255 1.78273 45.7264 1.14277 45.7264C0.502821 45.7264 0 45.2255 0 44.5878C0 43.9502 0.502821 43.4492 1.14277 43.4492C1.78273 43.4492 2.28555 43.9502 2.28555 44.5878ZM0.137133 44.5878C0.137133 45.1799 0.594243 45.6354 1.14277 45.6354C1.73702 45.6354 2.14842 45.1799 2.14842 44.5878C2.14842 43.9958 1.73702 43.5403 1.14277 43.5403C0.548532 43.5403 0.137133 43.9958 0.137133 44.5878ZM0.822797 44.5423H1.09706C1.27991 44.5423 1.50846 44.5423 1.50846 44.269C1.50846 44.0413 1.32562 43.9958 1.18849 43.9958H0.822797V44.5423ZM0.731375 43.9047H1.2342C1.55417 43.9047 1.69131 44.0413 1.69131 44.269C1.69131 44.4967 1.55417 44.5878 1.32562 44.6334L1.73702 45.2255H1.59988L1.18849 44.6334H0.822797V45.2255H0.731375V43.9047Z" fill="#224CFF"/>
<path d="M64.0738 25.1407C64.2566 25.1862 64.4394 25.1862 64.7136 25.1862C65.4906 25.1862 66.1761 24.8674 66.1761 24.0931C66.1761 23.3189 65.4906 23.0001 64.6222 23.0001H64.0281V25.1407H64.0738ZM64.0738 21.7248H64.6222C65.5363 21.7248 65.9933 21.3605 65.9933 20.7684C65.9933 20.1763 65.5363 19.903 64.7593 19.903C64.3937 19.903 64.1652 19.903 64.0281 19.9486V21.7248H64.0738ZM62.3828 18.8555C62.8398 18.7644 63.7082 18.6733 64.5765 18.6733C65.6277 18.6733 66.2675 18.7644 66.8159 19.0832C67.3644 19.3565 67.73 19.903 67.73 20.5862C67.73 21.2694 67.3187 21.8615 66.496 22.1803C67.3644 22.408 68.0042 23.0912 68.0042 24.0476C68.0042 24.7308 67.6843 25.2773 67.2273 25.6417C66.6788 26.0971 65.7648 26.3248 64.2566 26.3248C63.434 26.3248 62.7941 26.2793 62.3828 26.2337V18.8555Z" fill="#224CFF"/>
<path d="M69.5133 20.8139H71.2046V26.3248H69.5133V20.8139ZM70.3818 20.0852C69.7876 20.0852 69.4219 19.6753 69.4219 19.1743C69.4219 18.6733 69.7876 18.2634 70.3818 18.2634C70.9761 18.2634 71.3417 18.6733 71.3417 19.1743C71.3417 19.6753 70.9761 20.0852 70.3818 20.0852Z" fill="#224CFF"/>
<path d="M76.5042 23.0459C76.5042 22.9548 76.5042 22.8182 76.4585 22.7271C76.3214 22.2717 76.0015 21.9528 75.5445 21.9528C74.9046 21.9528 74.4019 22.4994 74.4019 23.5014C74.4019 24.3212 74.8132 24.9588 75.4988 24.9588C75.9558 24.9588 76.2757 24.6855 76.4128 24.2756C76.4585 24.139 76.4585 23.9568 76.4585 23.8202V23.0459H76.5042ZM78.1952 25.5509C78.1952 26.5984 77.9667 27.4637 77.3726 28.0558C76.7784 28.5568 75.9558 28.739 75.1332 28.739C74.4019 28.739 73.6707 28.6024 73.168 28.3291L73.4879 27.0083C73.8535 27.1905 74.4476 27.4182 75.0875 27.4182C75.9101 27.4182 76.5042 27.0083 76.5042 25.9608V25.5964C76.1843 26.0519 75.6359 26.3251 75.0418 26.3251C73.6707 26.3251 72.7109 25.2321 72.7109 23.638C72.7109 21.8618 73.8535 20.7231 75.2246 20.7231C75.9558 20.7231 76.4585 21.042 76.7327 21.4974L76.7784 20.8598H78.2409C78.1952 21.2241 78.1952 21.6796 78.1952 22.4994V25.5509Z" fill="#224CFF"/>
<path d="M84.5035 25.1407C84.6863 25.1862 84.8691 25.1862 85.1433 25.1862C85.9203 25.1862 86.6058 24.8674 86.6058 24.0931C86.6058 23.3189 85.9203 23.0001 85.0519 23.0001H84.5035V25.1407ZM84.5035 21.7248H85.0519C85.966 21.7248 86.423 21.3605 86.423 20.7684C86.423 20.1763 85.966 19.903 85.189 19.903C84.8234 19.903 84.5949 19.903 84.4578 19.9486V21.7248H84.5035ZM82.8125 18.8555C83.2695 18.7644 84.1379 18.6733 85.0062 18.6733C86.0574 18.6733 86.6972 18.7644 87.2456 19.0832C87.794 19.3565 88.1597 19.903 88.1597 20.5862C88.1597 21.2694 87.7483 21.8615 86.9257 22.1803C87.794 22.408 88.4339 23.0912 88.4339 24.0476C88.4339 24.7308 88.114 25.2773 87.6569 25.6417C87.1085 26.0971 86.1945 26.3248 84.6863 26.3248C83.8636 26.3248 83.2238 26.2793 82.8125 26.2337V18.8555Z" fill="#224CFF"/>
<path d="M89.9402 22.636C89.9402 21.8162 89.9402 21.2697 89.8945 20.8142H91.3573L91.403 21.8618H91.4487C91.723 21.042 92.4086 20.7231 92.9115 20.7231C93.0486 20.7231 93.14 20.7231 93.2771 20.7687V22.3627C93.14 22.3627 93.0029 22.3172 92.82 22.3172C92.1801 22.3172 91.7687 22.636 91.6315 23.1825C91.5858 23.2736 91.5858 23.4103 91.5858 23.5469V26.3251H89.8945L89.9402 22.636Z" fill="#224CFF"/>
<path d="M97.1644 25.2322C97.8499 25.2322 98.2613 24.549 98.2613 23.5926C98.2613 22.7728 97.9413 21.953 97.1644 21.953C96.3418 21.953 96.0218 22.7728 96.0218 23.5926C96.0218 24.5035 96.4332 25.2322 97.1644 25.2322ZM97.1187 26.4619C95.5191 26.4619 94.2852 25.4144 94.2852 23.5926C94.2852 21.8163 95.4734 20.6777 97.2101 20.6777C98.9011 20.6777 99.9979 21.8619 99.9979 23.5015C100.044 25.551 98.5812 26.4619 97.1187 26.4619Z" fill="#224CFF"/>
<path d="M103.381 19.311V20.814H104.615V22.0893H103.381V24.0932C103.381 24.7764 103.564 25.0496 104.067 25.0496C104.295 25.0496 104.432 25.0496 104.569 25.0041V26.3249C104.341 26.416 103.929 26.4615 103.472 26.4615C102.924 26.4615 102.467 26.2794 102.192 26.0061C101.872 25.6873 101.735 25.1407 101.735 24.3665V22.0893H101.004V20.814H101.735V19.7665L103.381 19.311Z" fill="#224CFF"/>
<path d="M106.117 18.3091H107.808V21.4517C107.991 21.2239 108.219 20.9962 108.494 20.8596C108.768 20.7229 109.088 20.6319 109.362 20.6319C110.459 20.6319 111.282 21.4061 111.282 23.0457V26.3249H109.591V23.2734C109.591 22.5447 109.362 22.0437 108.722 22.0437C108.265 22.0437 107.991 22.317 107.854 22.6358C107.808 22.7269 107.808 22.8635 107.808 23.0002V26.3249H106.117V18.3091Z" fill="#224CFF"/>
<path d="M116.407 22.955C116.407 22.5451 116.225 21.8163 115.448 21.8163C114.716 21.8163 114.442 22.4995 114.396 22.955H116.407ZM114.396 24.0936C114.442 24.8223 115.128 25.1411 115.95 25.1411C116.544 25.1411 117.001 25.05 117.459 24.9134L117.687 26.0975C117.139 26.3253 116.453 26.4619 115.722 26.4619C113.848 26.4619 112.797 25.3688 112.797 23.6381C112.797 22.2262 113.665 20.6777 115.585 20.6777C117.367 20.6777 118.053 22.0896 118.053 23.456C118.053 23.7292 118.007 24.0025 118.007 24.1391L114.396 24.0936Z" fill="#224CFF"/>
<path d="M119.468 22.636C119.468 21.8162 119.468 21.2697 119.422 20.8142H120.885L120.93 21.8618H120.976C121.25 21.042 121.936 20.7231 122.439 20.7231C122.576 20.7231 122.667 20.7231 122.804 20.7687V22.3627C122.667 22.3627 122.53 22.3172 122.347 22.3172C121.707 22.3172 121.296 22.636 121.159 23.1825C121.159 23.2736 121.113 23.4103 121.113 23.5469V26.3251H119.422L119.468 22.636Z" fill="#224CFF"/>
<path d="M124.173 24.8677C124.493 25.0499 125.133 25.2776 125.635 25.2776C126.138 25.2776 126.367 25.0954 126.367 24.8222C126.367 24.5489 126.184 24.4123 125.59 24.1845C124.447 23.8202 123.99 23.1825 124.036 22.5449C124.036 21.4974 124.904 20.7231 126.275 20.7231C126.915 20.7231 127.464 20.8598 127.83 21.042L127.555 22.2261C127.327 22.0895 126.824 21.9073 126.367 21.9073C125.955 21.9073 125.727 22.0895 125.727 22.3627C125.727 22.636 125.955 22.7726 126.595 23.0004C127.647 23.3647 128.058 23.9113 128.058 24.6855C128.058 25.733 127.281 26.4618 125.681 26.4618C124.95 26.4618 124.31 26.2796 123.898 26.0519L124.173 24.8677Z" fill="#224CFF"/>
<path d="M133.953 25.1407C134.136 25.1862 134.318 25.1862 134.593 25.1862C135.369 25.1862 136.055 24.8674 136.055 24.0931C136.055 23.3189 135.369 23.0001 134.501 23.0001H133.907V25.1407H133.953ZM133.953 21.7248H134.501C135.415 21.7248 135.872 21.3605 135.872 20.7684C135.872 20.1763 135.415 19.903 134.638 19.903C134.273 19.903 134.044 19.903 133.907 19.9486V21.7248H133.953ZM132.262 18.8555C132.719 18.7644 133.587 18.6733 134.455 18.6733C135.507 18.6733 136.146 18.7644 136.695 19.0832C137.243 19.3565 137.609 19.903 137.609 20.5862C137.609 21.2694 137.198 21.8615 136.375 22.1803C137.243 22.408 137.883 23.0912 137.883 24.0476C137.883 24.7308 137.563 25.2773 137.106 25.6417C136.558 26.0971 135.644 26.3248 134.136 26.3248C133.313 26.3248 132.673 26.2793 132.262 26.2337V18.8555Z" fill="#224CFF"/>
<path d="M139.388 20.8139H141.08V26.3248H139.388V20.8139ZM140.257 20.0852C139.663 20.0852 139.297 19.6753 139.297 19.1743C139.297 18.6733 139.663 18.2634 140.257 18.2634C140.851 18.2634 141.217 18.6733 141.217 19.1743C141.217 19.6753 140.851 20.0852 140.257 20.0852Z" fill="#224CFF"/>
<path d="M146.387 23.0459C146.387 22.9548 146.387 22.8182 146.341 22.7271C146.204 22.2717 145.884 21.9528 145.427 21.9528C144.787 21.9528 144.285 22.4994 144.285 23.5014C144.285 24.3212 144.696 24.9588 145.382 24.9588C145.839 24.9588 146.159 24.6855 146.296 24.2756C146.341 24.139 146.341 23.9568 146.341 23.8202V23.0459H146.387ZM148.078 25.5509C148.078 26.5984 147.85 27.4637 147.255 28.0558C146.661 28.5568 145.839 28.739 145.016 28.739C144.285 28.739 143.553 28.6024 143.051 28.3291L143.371 27.0083C143.736 27.1905 144.33 27.4182 144.97 27.4182C145.793 27.4182 146.387 27.0083 146.387 25.9608V25.5964C146.067 26.0519 145.519 26.3251 144.925 26.3251C143.554 26.3251 142.594 25.2321 142.594 23.638C142.594 21.8618 143.736 20.7231 145.107 20.7231C145.839 20.7231 146.341 21.042 146.616 21.4974L146.661 20.8598H148.124C148.078 21.2241 148.078 21.6796 148.078 22.4994V25.5509Z" fill="#224CFF"/>
<path d="M152.738 24.5938C153.195 24.8215 153.926 25.0492 154.657 25.0492C155.434 25.0492 155.846 24.7304 155.846 24.2294C155.846 23.774 155.48 23.5007 154.566 23.1819C153.286 22.7265 152.464 22.0433 152.464 20.9047C152.464 19.5839 153.561 18.6274 155.343 18.6274C156.211 18.6274 156.805 18.8096 157.262 18.9918L156.897 20.3581C156.623 20.2215 156.074 19.9938 155.343 19.9938C154.612 19.9938 154.246 20.3581 154.246 20.7225C154.246 21.2235 154.657 21.4057 155.663 21.8156C156.988 22.3166 157.628 22.9997 157.628 24.0928C157.628 25.368 156.668 26.4611 154.566 26.4611C153.698 26.4611 152.829 26.2334 152.418 26.0057L152.738 24.5938Z" fill="#224CFF"/>
<path d="M159.043 20.8139H160.735V26.3248H159.043V20.8139ZM159.866 20.0852C159.272 20.0852 158.906 19.6753 158.906 19.1743C158.906 18.6733 159.272 18.2634 159.866 18.2634C160.46 18.2634 160.826 18.6733 160.826 19.1743C160.872 19.6753 160.506 20.0852 159.866 20.0852Z" fill="#224CFF"/>
<path d="M162.52 24.8677C162.84 25.0499 163.48 25.2776 163.983 25.2776C164.486 25.2776 164.714 25.0954 164.714 24.8222C164.714 24.5489 164.532 24.4123 163.937 24.1845C162.795 23.8202 162.338 23.1825 162.383 22.5449C162.383 21.4974 163.252 20.7231 164.623 20.7231C165.263 20.7231 165.812 20.8598 166.177 21.042L165.903 22.2261C165.674 22.0895 165.172 21.9073 164.714 21.9073C164.303 21.9073 164.075 22.0895 164.075 22.3627C164.075 22.636 164.303 22.7726 164.943 23.0004C165.994 23.3647 166.406 23.9113 166.406 24.6855C166.406 25.733 165.629 26.4618 164.029 26.4618C163.297 26.4618 162.657 26.2796 162.246 26.0519L162.52 24.8677Z" fill="#224CFF"/>
<path d="M169.693 19.311V20.814H170.928V22.0893H169.693V24.0932C169.693 24.7764 169.876 25.0496 170.379 25.0496C170.608 25.0496 170.745 25.0496 170.882 25.0041V26.3249C170.653 26.416 170.242 26.4615 169.785 26.4615C169.236 26.4615 168.779 26.2794 168.505 26.0061C168.185 25.6873 168.048 25.1407 168.048 24.3665V22.0893H167.316V20.814H168.048V19.7665L169.693 19.311Z" fill="#224CFF"/>
<path d="M175.634 22.955C175.634 22.5451 175.451 21.8163 174.674 21.8163C173.943 21.8163 173.669 22.4995 173.623 22.955H175.634ZM173.623 24.0936C173.669 24.8223 174.354 25.1411 175.177 25.1411C175.771 25.1411 176.228 25.05 176.685 24.9134L176.914 26.0975C176.365 26.3253 175.68 26.4619 174.948 26.4619C173.075 26.4619 172.023 25.3688 172.023 23.6381C172.023 22.2262 172.892 20.6777 174.811 20.6777C176.594 20.6777 177.279 22.0896 177.279 23.456C177.279 23.7292 177.233 24.0025 177.233 24.1391L173.623 24.0936Z" fill="#224CFF"/>
<path d="M178.694 22.636C178.694 21.8162 178.694 21.2697 178.648 20.8142H180.111L180.157 21.8618H180.203C180.477 21.042 181.163 20.7231 181.665 20.7231C181.802 20.7231 181.894 20.7231 182.031 20.7687V22.3627C181.894 22.3627 181.757 22.3172 181.574 22.3172C180.934 22.3172 180.523 22.636 180.385 23.1825C180.385 23.2736 180.34 23.4103 180.34 23.5469V26.3251H178.648L178.694 22.636Z" fill="#224CFF"/>
<path d="M183.356 24.8677C183.676 25.0499 184.316 25.2776 184.819 25.2776C185.322 25.2776 185.55 25.0954 185.55 24.8222C185.55 24.5489 185.368 24.4123 184.773 24.1845C183.631 23.8202 183.173 23.1825 183.219 22.5449C183.219 21.4974 184.088 20.7231 185.459 20.7231C186.099 20.7231 186.647 20.8598 187.013 21.042L186.739 22.2261C186.51 22.0895 186.008 21.9073 185.55 21.9073C185.139 21.9073 184.91 22.0895 184.91 22.3627C184.91 22.636 185.139 22.7726 185.779 23.0004C186.83 23.3647 187.242 23.9113 187.242 24.6855C187.242 25.733 186.465 26.4618 184.865 26.4618C184.133 26.4618 183.493 26.2796 183.082 26.0519L183.356 24.8677Z" fill="#224CFF"/>
<path d="M193.959 25.2322C194.644 25.2322 195.055 24.549 195.055 23.5926C195.055 22.7728 194.735 21.953 193.959 21.953C193.136 21.953 192.816 22.7728 192.816 23.5926C192.862 24.5035 193.273 25.2322 193.959 25.2322ZM193.959 26.4619C192.359 26.4619 191.125 25.4144 191.125 23.5926C191.125 21.8163 192.313 20.6777 194.05 20.6777C195.741 20.6777 196.838 21.8619 196.838 23.5015C196.838 25.551 195.421 26.4619 193.959 26.4619Z" fill="#224CFF"/>
<path d="M198.528 26.3245V22.0433H197.797V20.768H198.528V20.5403C198.528 19.8572 198.711 19.1284 199.214 18.673C199.671 18.2631 200.22 18.1265 200.722 18.1265C201.088 18.1265 201.362 18.172 201.637 18.2176L201.591 19.5383C201.454 19.4928 201.271 19.4473 201.042 19.4473C200.494 19.4473 200.265 19.9027 200.265 20.4492V20.7225H201.362V21.9978H200.265V26.3245H198.528Z" fill="#224CFF"/>
<path d="M207.078 22.0892H207.763C208.632 22.0892 209.134 21.6793 209.134 20.9961C209.134 20.3129 208.677 19.9486 207.855 19.9486C207.443 19.9486 207.215 19.9941 207.078 19.9941V22.0892ZM205.387 18.8555C205.935 18.7644 206.758 18.6733 207.672 18.6733C208.814 18.6733 209.591 18.8555 210.14 19.2654C210.597 19.6298 210.825 20.1763 210.825 20.8595C210.825 21.8159 210.14 22.4991 209.5 22.7268V22.7723C210.048 23.0001 210.323 23.5011 210.505 24.1842C210.734 25.0496 210.962 26.0516 211.1 26.3248H209.363C209.271 26.0971 209.043 25.505 208.86 24.5486C208.632 23.5921 208.312 23.3189 207.626 23.3189H207.123V26.3248H205.432V18.8555H205.387Z" fill="#224CFF"/>
<path d="M217.546 24.5486C217.546 25.2773 217.546 25.8694 217.592 26.3249H216.129L216.038 25.5506H215.992C215.764 25.8694 215.261 26.4615 214.255 26.4615C213.113 26.4615 212.336 25.7783 212.336 24.0476V20.814H214.027V23.7744C214.027 24.5942 214.301 25.0496 214.895 25.0496C215.352 25.0496 215.627 24.7308 215.764 24.4575C215.809 24.3664 215.809 24.2298 215.809 24.0932V20.814H217.5V24.5486H217.546Z" fill="#224CFF"/>
<path d="M219.325 24.8677C219.645 25.0499 220.285 25.2776 220.788 25.2776C221.291 25.2776 221.519 25.0954 221.519 24.8222C221.519 24.5489 221.336 24.4123 220.742 24.1845C219.599 23.8202 219.142 23.1825 219.188 22.5449C219.188 21.4974 220.056 20.7231 221.428 20.7231C222.068 20.7231 222.616 20.8598 222.982 21.042L222.708 22.2261C222.479 22.0895 221.976 21.9073 221.519 21.9073C221.108 21.9073 220.879 22.0895 220.879 22.3627C220.879 22.636 221.108 22.7726 221.748 23.0004C222.799 23.3647 223.21 23.9113 223.21 24.6855C223.21 25.733 222.433 26.4618 220.834 26.4618C220.102 26.4618 219.462 26.2796 219.051 26.0519L219.325 24.8677Z" fill="#224CFF"/>
<path d="M224.536 24.8677C224.856 25.0499 225.496 25.2776 225.999 25.2776C226.502 25.2776 226.73 25.0954 226.73 24.8222C226.73 24.5489 226.547 24.4123 225.953 24.1845C224.81 23.8202 224.353 23.1825 224.399 22.5449C224.399 21.4974 225.267 20.7231 226.639 20.7231C227.279 20.7231 227.827 20.8598 228.193 21.042L227.919 22.2261C227.69 22.0895 227.187 21.9073 226.73 21.9073C226.319 21.9073 226.09 22.0895 226.09 22.3627C226.09 22.636 226.319 22.7726 226.959 23.0004C228.01 23.3647 228.421 23.9113 228.421 24.6855C228.421 25.733 227.644 26.4618 226.044 26.4618C225.313 26.4618 224.673 26.2796 224.262 26.0519L224.536 24.8677Z" fill="#224CFF"/>
<path d="M229.838 20.8139H231.529V26.3248H229.838V20.8139ZM230.706 20.0852C230.112 20.0852 229.746 19.6753 229.746 19.1743C229.746 18.6733 230.112 18.2634 230.706 18.2634C231.3 18.2634 231.666 18.6733 231.666 19.1743C231.666 19.6753 231.3 20.0852 230.706 20.0852Z" fill="#224CFF"/>
<path d="M236.237 23.7291C235.322 23.7291 234.637 23.9568 234.637 24.5944C234.637 25.0499 234.911 25.2321 235.322 25.2321C235.734 25.2321 236.099 24.9588 236.191 24.5944C236.237 24.5033 236.237 24.4123 236.237 24.3212V23.7291ZM237.882 25.0043C237.882 25.5053 237.882 26.0519 237.974 26.3251H236.419L236.328 25.7786H236.282C235.917 26.234 235.368 26.4618 234.728 26.4618C233.631 26.4618 232.945 25.642 232.945 24.7766C232.945 23.3647 234.225 22.6816 236.191 22.6816V22.636C236.191 22.3627 236.054 21.9073 235.185 21.9073C234.637 21.9073 234.042 22.0895 233.677 22.3172L233.357 21.2241C233.722 20.9964 234.5 20.7231 235.505 20.7231C237.334 20.7231 237.928 21.8162 237.928 23.0915V25.0043H237.882Z" fill="#224CFF"/>
<path d="M67.5046 39.1233C67.139 39.3054 66.4534 39.4876 65.5851 39.4876C63.8484 39.4876 62.2031 38.3945 62.2031 35.7985C62.2031 33.6579 63.5742 32.0183 65.8593 32.0183C66.7734 32.0183 67.3218 32.2005 67.5046 32.3371L67.3218 32.747C66.9562 32.5648 66.4534 32.4282 65.8136 32.4282C63.8941 32.4282 62.7059 33.7035 62.7059 35.7985C62.7059 37.7569 63.8027 39.0322 65.7679 39.0322C66.362 39.0322 66.9562 38.8955 67.3675 38.7134L67.5046 39.1233Z" fill="#224CFF"/>
<path d="M71.5272 34.2046V34.66H69.8816V39.3511H69.3788V34.66H67.6875V34.2046H71.5272Z" fill="#224CFF"/>
<path d="M75.5001 36.6185C74.3574 36.5729 72.8946 36.7551 72.8946 37.9848C72.8946 38.7135 73.3974 39.0779 73.9002 39.0779C74.7688 39.0779 75.2259 38.5313 75.4087 38.0304C75.4544 37.9393 75.4544 37.8026 75.4544 37.7115V36.6185H75.5001ZM76.0487 38.1214C76.0487 38.5313 76.0487 38.9412 76.1401 39.3511H75.683L75.5916 38.6224C75.3173 39.0323 74.7688 39.4878 73.946 39.4878C72.8946 39.4878 72.4375 38.7591 72.4375 38.0759C72.4375 36.8917 73.4888 36.163 75.5458 36.2086V36.0719C75.5458 35.571 75.4544 34.569 74.2202 34.569C73.7631 34.569 73.306 34.7056 72.9403 34.9333L72.8032 34.569C73.2603 34.2502 73.8545 34.1135 74.3116 34.1135C75.7744 34.1135 76.0944 35.2066 76.0944 36.163V38.1214H76.0487Z" fill="#224CFF"/>
<path d="M78.3806 37.3471C78.3806 37.4837 78.3806 37.6203 78.4263 37.757C78.6548 38.5312 79.3405 39.0778 80.1176 39.0778C81.3061 39.0778 81.946 38.1213 81.946 36.755C81.946 35.6164 81.3061 34.5689 80.1633 34.5689C79.4319 34.5689 78.7005 35.0699 78.472 35.9352C78.4263 36.0718 78.3806 36.254 78.3806 36.3906V37.3471ZM77.8777 35.8441C77.8777 35.2065 77.8777 34.7055 77.832 34.2045H78.3349L78.3806 35.1609C78.7463 34.4778 79.3862 34.0679 80.3004 34.0679C81.626 34.0679 82.4946 35.1609 82.4946 36.6639C82.4946 38.4857 81.3975 39.4421 80.1633 39.4421C79.4319 39.4421 78.792 39.1233 78.4263 38.4857V41.4461H77.9235V35.8441H77.8777Z" fill="#224CFF"/>
<path d="M84.5496 34.2046V38.9412H86.6519V34.2046H87.2003V38.9412H89.2569V34.2046H89.8054V39.3511H84.0469V34.2046H84.5496Z" fill="#224CFF"/>
<path d="M92.1813 34.2046V36.7551C92.1813 37.5749 92.1813 38.0303 92.1356 38.8046C92.5013 38.167 92.6842 37.8026 93.0956 37.165L95.0611 34.2046H95.6097V39.3511H95.1068V36.8006C95.1068 35.9353 95.1068 35.4343 95.1526 34.7511C94.7412 35.4798 94.4669 35.9353 94.1012 36.4818C93.507 37.3472 92.8213 38.3491 92.1813 39.3511H91.6328V34.2046H92.1813Z" fill="#224CFF"/>
<path d="M100.96 36.3455C100.96 35.6167 100.686 34.5237 99.4519 34.5237C98.3092 34.5237 97.8521 35.5257 97.7606 36.3455H100.96ZM97.7149 36.7554C97.7149 38.395 98.6291 39.0326 99.6805 39.0326C100.412 39.0326 100.823 38.8959 101.098 38.7593L101.235 39.1692C101.052 39.2603 100.503 39.488 99.6348 39.488C98.172 39.488 97.2578 38.395 97.2578 36.892C97.2578 35.1613 98.2177 34.1138 99.5434 34.1138C101.235 34.1138 101.555 35.7078 101.555 36.4365C101.555 36.5732 101.555 36.6643 101.555 36.7554H97.7149Z" fill="#224CFF"/>
<path d="M106.483 38.9415C106.712 38.9871 106.986 38.9871 107.352 38.9871C108.037 38.9871 108.723 38.7594 109.135 38.3039C109.409 37.9851 109.546 37.6208 109.546 37.0742C109.546 36.3911 109.272 35.9356 108.815 35.6623C108.403 35.3891 107.855 35.298 107.26 35.298C107.032 35.298 106.666 35.298 106.438 35.3435V38.9415H106.483ZM109.592 32.1099V32.5198H106.529V34.9336C106.758 34.8881 107.215 34.8881 107.443 34.8881C108.083 34.8881 108.723 35.0247 109.18 35.298C109.774 35.6168 110.14 36.2089 110.14 37.0742C110.14 37.7574 109.912 38.2128 109.592 38.5772C109.043 39.1237 108.175 39.3514 107.26 39.3514C106.712 39.3514 106.3 39.3059 105.98 39.3059V32.1099H109.592Z" fill="#224CFF"/>
<path d="M112.111 37.3471C112.111 37.4837 112.111 37.6203 112.157 37.757C112.385 38.5312 113.071 39.0778 113.848 39.0778C115.037 39.0778 115.676 38.1213 115.676 36.755C115.676 35.6164 115.037 34.5689 113.894 34.5689C113.162 34.5689 112.431 35.0699 112.202 35.9352C112.157 36.0718 112.111 36.254 112.111 36.3906V37.3471ZM111.608 35.8441C111.608 35.2065 111.608 34.7055 111.562 34.2045H112.065L112.111 35.1609C112.477 34.4778 113.117 34.0679 114.031 34.0679C115.357 34.0679 116.225 35.1609 116.225 36.6639C116.225 38.4857 115.128 39.4421 113.894 39.4421C113.162 39.4421 112.522 39.1233 112.157 38.4857V41.4461H111.654V35.8441H111.608Z" fill="#224CFF"/>
<path d="M120.518 36.6187C119.421 36.5732 117.913 36.7554 117.913 37.9851C117.913 38.7138 118.416 39.0781 118.919 39.0781C119.787 39.0781 120.244 38.5316 120.427 38.0306C120.473 37.9395 120.473 37.8029 120.473 37.7118V36.6187H120.518ZM121.021 38.1217C121.021 38.5316 121.021 38.9415 121.113 39.3514H120.656L120.564 38.6227C120.29 39.0326 119.741 39.488 118.919 39.488C117.867 39.488 117.41 38.7593 117.41 38.0761C117.41 36.892 118.462 36.1633 120.518 36.2088V36.0722C120.518 35.5712 120.427 34.5692 119.193 34.5692C118.736 34.5692 118.279 34.7059 117.913 34.9336L117.73 34.5692C118.187 34.2504 118.781 34.1138 119.239 34.1138C120.701 34.1138 121.021 35.2068 121.021 36.1633V38.1217Z" fill="#224CFF"/>
<path d="M125.91 34.2046V34.66H124.264V39.3511H123.762V34.66H122.07V34.2046H125.91Z" fill="#224CFF"/>
<path d="M127.69 38.986C127.919 38.986 128.147 39.0316 128.467 39.0316C129.29 39.0316 130.342 38.7583 130.342 37.7563C130.342 36.7088 129.244 36.4811 128.422 36.4811C128.147 36.4811 127.919 36.4811 127.645 36.5266V38.986H127.69ZM127.69 34.2039V36.0712C127.919 36.0256 128.285 36.0256 128.559 36.0256C129.702 36.0256 130.89 36.39 130.89 37.7563C130.89 38.2118 130.707 38.5306 130.479 38.8039C129.976 39.3048 129.107 39.3959 128.376 39.3959C127.919 39.3959 127.507 39.3504 127.188 39.3504V34.2039H127.69Z" fill="#224CFF"/>
<path d="M135.139 34.6146C134.865 34.5691 134.591 34.5691 134.225 34.5691C133.539 34.5691 132.579 34.7513 132.579 35.6166C132.579 36.3909 133.585 36.6641 134.179 36.6641H135.139V34.6146ZM135.642 39.3513H135.139V37.0285H134.225C133.814 37.0285 133.539 37.1196 133.311 37.2562C132.854 37.575 132.717 38.3493 132.488 38.8958C132.397 39.078 132.351 39.2146 132.259 39.3057H131.711C131.802 39.1235 131.939 38.9414 132.031 38.7136C132.305 38.1671 132.351 37.4839 132.899 37.074C133.037 36.9829 133.219 36.8919 133.448 36.8463C132.717 36.7552 132.077 36.3453 132.077 35.5711C132.077 35.1156 132.305 34.7513 132.625 34.5235C133.037 34.2503 133.585 34.1592 134.225 34.1592C134.728 34.1592 135.231 34.2047 135.688 34.2503V39.3513H135.642Z" fill="#224CFF"/>
<path d="M145.426 39.1228C145.061 39.3049 144.375 39.4871 143.507 39.4871C141.77 39.4871 140.125 38.3941 140.125 35.798C140.125 33.6574 141.496 32.0178 143.781 32.0178C144.695 32.0178 145.244 32.2 145.426 32.3366L145.244 32.7465C144.878 32.5644 144.375 32.4277 143.735 32.4277C141.816 32.4277 140.628 33.703 140.628 35.798C140.628 37.7564 141.725 39.0317 143.69 39.0317C144.284 39.0317 144.878 38.895 145.289 38.7129L145.426 39.1228Z" fill="#224CFF"/>
<path d="M149.402 34.2046V34.66H147.757V39.3511H147.254V34.66H145.562V34.2046H149.402Z" fill="#224CFF"/>
<path d="M153.421 36.6192C152.278 36.5737 150.815 36.7558 150.815 37.9855C150.815 38.7143 151.318 39.0786 151.821 39.0786C152.689 39.0786 153.147 38.5321 153.329 38.0311C153.375 37.94 153.375 37.8034 153.375 37.7123V36.6192H153.421ZM153.924 38.1222C153.924 38.5321 153.924 38.942 154.015 39.3519H153.558L153.467 38.6232C153.192 39.0331 152.644 39.4885 151.821 39.4885C150.77 39.4885 150.312 38.7598 150.312 38.0766C150.312 36.8925 151.364 36.1638 153.421 36.2093V36.0727C153.421 35.5717 153.329 34.5697 152.095 34.5697C151.638 34.5697 151.181 34.7063 150.815 34.9341L150.632 34.5697C151.09 34.2509 151.684 34.1143 152.141 34.1143C153.604 34.1143 153.924 35.2073 153.924 36.1638V38.1222Z" fill="#224CFF"/>
<path d="M156.301 37.3466C156.301 37.4832 156.301 37.6199 156.347 37.7565C156.576 38.5307 157.261 39.0773 158.038 39.0773C159.227 39.0773 159.867 38.1208 159.867 36.7545C159.867 35.6159 159.227 34.5684 158.084 34.5684C157.353 34.5684 156.621 35.0694 156.393 35.9347C156.347 36.0713 156.301 36.2535 156.301 36.3902V37.3466ZM155.753 35.8436C155.753 35.206 155.753 34.705 155.707 34.204H156.21L156.256 35.1605C156.621 34.4773 157.261 34.0674 158.175 34.0674C159.501 34.0674 160.37 35.1605 160.37 36.6634C160.37 38.4852 159.272 39.4416 158.038 39.4416C157.307 39.4416 156.667 39.1228 156.301 38.4852V41.4456H155.798V35.8436H155.753Z" fill="#224CFF"/>
<path d="M162.47 34.2046V38.9412H164.573V34.2046H165.075V38.9412H167.178V34.2046H167.68V39.3511H161.922V34.2046H162.47Z" fill="#224CFF"/>
<path d="M170.056 34.2039V36.7544C170.056 37.5742 170.056 38.0296 170.011 38.8039C170.376 38.1662 170.559 37.8019 170.971 37.1643L172.936 34.2039H173.485V39.3504H172.982V36.7999C172.982 35.9345 172.982 35.4336 173.028 34.7504C172.616 35.4791 172.342 35.9346 171.976 36.4811C171.382 37.3464 170.696 38.3484 170.056 39.3504H169.508V34.2039H170.056Z" fill="#224CFF"/>
<path d="M178.835 36.345C178.835 35.6163 178.561 34.5232 177.327 34.5232C176.184 34.5232 175.727 35.5252 175.636 36.345H178.835ZM175.59 36.7549C175.59 38.3945 176.504 39.0321 177.556 39.0321C178.287 39.0321 178.698 38.8955 178.973 38.7588L179.11 39.1687C178.927 39.2598 178.378 39.4875 177.51 39.4875C176.047 39.4875 175.133 38.3945 175.133 36.8915C175.133 35.1608 176.093 34.1133 177.418 34.1133C179.11 34.1133 179.43 35.7073 179.43 36.4361C179.43 36.5727 179.43 36.6638 179.43 36.7549H175.59Z" fill="#224CFF"/>
<path d="M188.751 39.1228C188.385 39.3049 187.7 39.4871 186.831 39.4871C185.094 39.4871 183.449 38.3941 183.449 35.798C183.449 33.6574 184.82 32.0178 187.105 32.0178C188.019 32.0178 188.568 32.2 188.751 32.3366L188.568 32.7465C188.202 32.5644 187.7 32.4277 187.06 32.4277C185.14 32.4277 183.952 33.703 183.952 35.798C183.952 37.7564 185.049 39.0317 187.014 39.0317C187.608 39.0317 188.202 38.895 188.614 38.7129L188.751 39.1228Z" fill="#224CFF"/>
<path d="M193.412 36.345C193.412 35.6163 193.138 34.5232 191.904 34.5232C190.761 34.5232 190.304 35.5252 190.213 36.345H193.412ZM190.121 36.7549C190.121 38.3945 191.035 39.0321 192.087 39.0321C192.818 39.0321 193.23 38.8955 193.504 38.7588L193.641 39.1687C193.458 39.2598 192.91 39.4875 192.041 39.4875C190.578 39.4875 189.664 38.3945 189.664 36.8915C189.664 35.1608 190.624 34.1133 191.95 34.1133C193.641 34.1133 193.961 35.7073 193.961 36.4361C193.961 36.5727 193.961 36.6638 193.961 36.7549H190.121Z" fill="#224CFF"/>
<path d="M199.121 39.1226C198.893 39.2137 198.344 39.4414 197.613 39.4414C196.15 39.4414 195.145 38.3483 195.145 36.7998C195.145 35.1602 196.242 34.0671 197.796 34.0671C198.436 34.0671 198.939 34.2493 199.121 34.3859L198.939 34.7959C198.71 34.6592 198.299 34.477 197.75 34.477C196.379 34.477 195.693 35.5246 195.693 36.7543C195.693 38.1206 196.516 38.986 197.704 38.986C198.299 38.986 198.71 38.8038 198.984 38.6671L199.121 39.1226Z" fill="#224CFF"/>
<path d="M204.015 34.2046V34.66H202.324V39.3511H201.821V34.66H200.176V34.2046H204.015Z" fill="#224CFF"/>
<path d="M205.799 37.3471C205.799 37.4837 205.799 37.6203 205.844 37.757C206.073 38.5312 206.758 39.0778 207.536 39.0778C208.724 39.0778 209.364 38.1213 209.364 36.755C209.364 35.6164 208.724 34.5689 207.581 34.5689C206.85 34.5689 206.119 35.0699 205.89 35.9352C205.844 36.0718 205.799 36.254 205.799 36.3906V37.3471ZM205.296 35.8441C205.296 35.2065 205.296 34.7055 205.25 34.2045H205.753L205.799 35.1609C206.164 34.4778 206.804 34.0679 207.718 34.0679C209.044 34.0679 209.913 35.1609 209.913 36.6639C209.913 38.4857 208.815 39.4421 207.581 39.4421C206.85 39.4421 206.21 39.1233 205.844 38.4857V41.4461H205.341V35.8441H205.296Z" fill="#224CFF"/>
<path d="M216.176 39.3506H215.673V34.2041H216.176V39.3506ZM211.97 38.9407C212.199 38.9863 212.428 38.9863 212.702 38.9863C213.525 38.9863 214.439 38.6219 214.439 37.711C214.439 36.7091 213.57 36.4358 212.747 36.4358C212.473 36.4358 212.199 36.4358 211.97 36.4813V38.9407ZM211.97 34.2041V36.0714C212.153 36.0259 212.473 36.0259 212.793 36.0259C213.89 36.0259 214.942 36.4813 214.942 37.711C214.942 38.1665 214.759 38.5308 214.53 38.8041C214.027 39.3051 213.25 39.3962 212.61 39.3962C212.153 39.3962 211.742 39.3506 211.422 39.3506V34.2041H211.97Z" fill="#224CFF"/>
<path d="M221.565 35.7972C221.794 35.8882 222.114 35.8882 222.48 35.8882C223.759 35.8882 224.537 35.2506 224.537 34.112C224.537 32.9734 223.714 32.4724 222.571 32.4724C222.114 32.4724 221.748 32.5179 221.565 32.5635V35.7972ZM221.062 32.1991C221.474 32.108 222.022 32.0625 222.617 32.0625C223.485 32.0625 224.125 32.2902 224.537 32.6546C224.902 32.9734 225.085 33.4744 225.085 34.0665C225.085 34.7041 224.902 35.1595 224.582 35.5239C224.125 36.0704 223.348 36.3437 222.48 36.3437C222.16 36.3437 221.84 36.3437 221.611 36.2526V39.3496H221.108V32.1991H221.062Z" fill="#224CFF"/>
<path d="M228.424 39.0304C229.475 39.0304 230.344 38.0739 230.344 36.7532C230.344 35.7967 229.841 34.5215 228.47 34.5215C227.144 34.5215 226.55 35.7056 226.55 36.7987C226.55 38.0739 227.372 39.0304 228.424 39.0304ZM228.378 39.4858C227.053 39.4858 226.047 38.4383 226.047 36.8442C226.047 35.068 227.19 34.1116 228.47 34.1116C229.887 34.1116 230.847 35.2046 230.847 36.7532C230.847 38.666 229.521 39.4858 228.378 39.4858Z" fill="#224CFF"/>
<path d="M236.012 39.1223C235.783 39.2134 235.235 39.4412 234.504 39.4412C233.041 39.4412 232.035 38.3481 232.035 36.7996C232.035 35.16 233.132 34.0669 234.686 34.0669C235.326 34.0669 235.829 34.2491 236.012 34.3857L235.829 34.7956C235.601 34.659 235.189 34.4768 234.641 34.4768C233.269 34.4768 232.584 35.5243 232.584 36.754C232.584 38.1204 233.407 38.9857 234.595 38.9857C235.189 38.9857 235.601 38.8035 235.875 38.6669L236.012 39.1223Z" fill="#224CFF"/>
<path d="M240.805 39.1223C240.576 39.2134 240.028 39.4412 239.297 39.4412C237.834 39.4412 236.828 38.3481 236.828 36.7996C236.828 35.16 237.925 34.0669 239.479 34.0669C240.119 34.0669 240.622 34.2491 240.805 34.3857L240.622 34.7956C240.394 34.659 239.982 34.4768 239.434 34.4768C238.062 34.4768 237.377 35.5243 237.377 36.754C237.377 38.1204 238.199 38.9857 239.388 38.9857C239.982 38.9857 240.394 38.8035 240.668 38.6669L240.805 39.1223Z" fill="#224CFF"/>
<path d="M242.728 34.2041V36.7546C242.728 37.5744 242.728 38.0298 242.682 38.8041C243.048 38.1665 243.231 37.8021 243.642 37.1645L245.608 34.2041H246.157V39.3506H245.654V36.8001C245.654 35.9348 245.654 35.4338 245.699 34.7506C245.288 35.4793 245.014 35.9348 244.648 36.4813C244.054 37.3467 243.368 38.3487 242.728 39.3506H242.18V34.2041H242.728Z" fill="#224CFF"/>
<path d="M248.572 34.2041V36.7546C248.572 37.5744 248.572 38.0298 248.526 38.8041C248.892 38.1665 249.075 37.8021 249.486 37.1645L251.452 34.2041H252V39.3506H251.497V36.8001C251.497 35.9348 251.497 35.4338 251.543 34.7506C251.132 35.4793 250.858 35.9348 250.492 36.4813C249.898 37.3467 249.212 38.3487 248.572 39.3506H248.023V34.2041H248.572Z" fill="#224CFF"/>
</svg>
