<svg width="415" height="76" fill="none" xmlns="http://www.w3.org/2000/svg"><path d="M80.231 48.835c.301 12.642-26.417 20.242-41.997 27.09 0 0 31.46-7.074 42.6-16.931 7.074-6.246 6.321-22.575-12.043-20.016-.15 0-.602.677-.752.677 0 0 12.041.903 12.192 9.18z" fill="#F3F2F2"/><path d="M19.57 25.208c-1.354-.376-2.935-.828-4.666-1.204l-.527-2.182S49.15 38.527 86.48 1.354L87.834 0s-.452 2.107-.376 2.032c0 0-1.58 1.128-3.538 3.762-3.085 4.214-6.096 12.265-1.053 27.54l-1.656 1.13s-1.204-10.385-6.548-7.224c-2.935 1.73-4.516 11.814-4.516 11.814l-2.408.677s8.128-22.95-5.42-19.264c-12.117 3.311-17.837 13.32-21.75 54.705 0 .301-2.333.753-2.333.753s3.462-22.575-6.774-22.048c-8.354.377-22.955 21.446-22.955 21.446H5.195c.076 0 39.513-43.268 14.375-50.115z" fill="#F3F2F2"/><path d="M39.74 23.177c3.087 0 6.323-2.86 7.226-6.396.903-3.537-.752-6.396-3.838-6.396-3.086 0-6.322 2.86-7.225 6.396-.979 3.536.752 6.396 3.838 6.396zM80.231 48.835c.301 12.642-26.417 20.242-41.997 27.09 0 0 31.46-7.074 42.6-16.931 7.074-6.246 6.321-22.575-12.043-20.016-.15 0-.602.677-.752.677 0 0 12.041.903 12.192 9.18z" fill="#F3F2F2"/><path d="M19.57 25.208c-1.354-.376-2.935-.828-4.666-1.204l-.527-2.182S49.15 38.527 86.48 1.354A31.087 31.087 0 0087.76 0s-.452 2.107-.377 2.032c0 0-1.58 1.128-3.537 3.762-3.086 4.214-6.096 12.265-1.054 27.54l-1.656 1.13s-1.204-10.385-6.547-7.224c-2.936 1.73-4.516 11.814-4.516 11.814l-2.333.677s8.128-22.95-5.42-19.264c-12.041 3.387-17.761 13.32-21.75 54.78 0 .302-2.333.753-2.333.753s3.462-22.574-6.774-22.047c-8.354.376-22.955 21.445-22.955 21.445H5.195c.076-.075 39.513-43.343 14.375-50.19z" fill="#F3F2F2"/><path d="M39.74 23.177c3.087 0 6.323-2.86 7.226-6.396.903-3.537-.752-6.396-3.838-6.396-3.086 0-6.322 2.86-7.225 6.396-.979 3.536.752 6.396 3.838 6.396zM71.503 11.137c2.333-.903 3.914-3.612 3.538-6.02-.377-2.483-2.635-3.687-4.968-2.86-2.333.904-3.913 3.613-3.537 6.02.376 2.484 2.559 3.763 4.967 2.86zM3.764 73.667a1.863 1.863 0 01-1.882 1.881A1.863 1.863 0 010 73.667c0-1.054.828-1.881 1.882-1.881 1.054 0 1.882.827 1.882 1.88zm-3.538 0c0 .978.753 1.73 1.656 1.73.979 0 1.656-.752 1.656-1.73s-.677-1.73-1.656-1.73c-.979 0-1.656.752-1.656 1.73zm1.129-.075h.452c.3 0 .677 0 .677-.452 0-.376-.301-.451-.527-.451h-.602v.903zm-.15-1.054h.827c.527 0 .753.226.753.602s-.226.527-.602.602l.678.978h-.226l-.678-.978h-.602v.978h-.15v-2.182zM105.523 41.537c.301.075.602.075 1.054.075 1.279 0 2.408-.527 2.408-1.806 0-1.28-1.129-1.806-2.559-1.806h-.978v3.537h.075zm0-5.644h.903c1.505 0 2.258-.602 2.258-1.58 0-.978-.753-1.43-2.032-1.43-.602 0-.978 0-1.204.075v2.935h.075zm-2.785-4.74c.753-.15 2.183-.301 3.613-.301 1.731 0 2.785.15 3.688.677.903.451 1.505 1.354 1.505 2.483s-.677 2.107-2.032 2.634c1.43.376 2.484 1.505 2.484 3.085 0 1.128-.527 2.032-1.28 2.633-.903.753-2.408 1.13-4.892 1.13-1.355 0-2.408-.076-3.086-.151v-12.19zM114.475 34.389h2.785v9.105h-2.785v-9.105zm1.43-1.204c-.979 0-1.581-.678-1.581-1.505 0-.828.602-1.505 1.581-1.505s1.581.677 1.581 1.505c0 .828-.602 1.505-1.581 1.505zM125.989 38.076c0-.15 0-.376-.075-.527-.226-.752-.753-1.279-1.506-1.279-1.053 0-1.881.903-1.881 2.558 0 1.355.677 2.408 1.806 2.408.753 0 1.28-.451 1.505-1.128.076-.226.076-.527.076-.753v-1.28h.075zm2.785 4.139c0 1.73-.377 3.16-1.355 4.138-.978.828-2.333 1.129-3.688 1.129-1.204 0-2.408-.226-3.236-.677l.527-2.183c.602.301 1.58.678 2.634.678 1.355 0 2.333-.678 2.333-2.408v-.602c-.527.752-1.43 1.204-2.408 1.204-2.258 0-3.839-1.806-3.839-4.44 0-2.934 1.882-4.816 4.14-4.816 1.204 0 2.032.527 2.483 1.28l.076-1.054h2.408c-.075.602-.075 1.355-.075 2.709v5.041zM139.164 41.537c.301.075.602.075 1.053.075 1.28 0 2.409-.527 2.409-1.806 0-1.28-1.129-1.806-2.559-1.806h-.903v3.537zm0-5.644h.903c1.505 0 2.258-.602 2.258-1.58 0-.978-.753-1.43-2.032-1.43-.603 0-.979 0-1.205.075v2.935h.076zm-2.785-4.74c.753-.15 2.183-.301 3.613-.301 1.731 0 2.784.15 3.687.677.904.451 1.506 1.354 1.506 2.483s-.678 2.107-2.032 2.634c1.43.376 2.483 1.505 2.483 3.085 0 1.128-.527 2.032-1.279 2.633-.903.753-2.409 1.13-4.892 1.13-1.355 0-2.409-.076-3.086-.151v-12.19zM148.118 37.399c0-1.355 0-2.258-.075-3.01h2.409l.075 1.73h.075c.452-1.354 1.581-1.88 2.409-1.88.226 0 .377 0 .602.075v2.633c-.225 0-.451-.075-.752-.075-1.054 0-1.732.527-1.957 1.43-.076.15-.076.376-.076.602v4.59h-2.785l.075-6.095zM160.007 41.687c1.129 0 1.807-1.129 1.807-2.709 0-1.355-.527-2.709-1.807-2.709-1.355 0-1.881 1.355-1.881 2.709 0 1.505.677 2.709 1.881 2.709zm-.075 2.032c-2.634 0-4.666-1.731-4.666-4.741 0-2.935 1.956-4.816 4.816-4.816 2.785 0 4.591 1.956 4.591 4.666.076 3.386-2.333 4.89-4.741 4.89zM170.25 31.905v2.483h2.033v2.107h-2.033v3.31c0 1.13.301 1.581 1.13 1.581.376 0 .602 0 .828-.075v2.182c-.377.15-1.054.226-1.807.226-.903 0-1.656-.301-2.108-.753-.527-.527-.753-1.43-.753-2.709v-3.762h-1.204v-2.107h1.204v-1.73l2.71-.753zM174.758 30.25h2.785v5.192c.301-.377.677-.753 1.128-.979.452-.225.979-.376 1.43-.376 1.807 0 3.162 1.28 3.162 3.988v5.418h-2.785v-5.041c0-1.204-.377-2.032-1.43-2.032-.753 0-1.204.451-1.43.978-.075.15-.075.376-.075.602v5.493h-2.785V30.25zM191.7 37.925c0-.678-.301-1.882-1.581-1.882-1.204 0-1.656 1.129-1.731 1.882h3.312zm-3.312 1.88c.075 1.205 1.204 1.731 2.559 1.731a8.21 8.21 0 002.484-.376l.376 1.957c-.903.376-2.032.602-3.236.602-3.086 0-4.817-1.806-4.817-4.666 0-2.332 1.43-4.89 4.591-4.89 2.935 0 4.064 2.332 4.064 4.59 0 .45-.075.902-.075 1.128l-5.946-.075zM196.739 37.399c0-1.355 0-2.258-.075-3.01h2.409l.075 1.73h.075c.452-1.354 1.581-1.88 2.409-1.88.226 0 .377 0 .603.075v2.633c-.226 0-.452-.075-.753-.075-1.054 0-1.732.527-1.957 1.43 0 .15-.076.376-.076.602v4.59h-2.785l.075-6.095zM204.487 41.086c.527.3 1.581.677 2.409.677.828 0 1.204-.301 1.204-.752 0-.452-.301-.678-1.28-1.054-1.882-.602-2.634-1.655-2.559-2.709 0-1.73 1.43-3.01 3.689-3.01 1.053 0 1.957.226 2.559.527l-.452 1.956c-.376-.225-1.204-.526-1.957-.526-.677 0-1.054.3-1.054.752s.377.677 1.431 1.054c1.731.602 2.408 1.505 2.408 2.784 0 1.73-1.279 2.934-3.914 2.934-1.204 0-2.258-.3-2.936-.677l.452-1.956zM220.597 41.537c.301.075.602.075 1.054.075 1.279 0 2.408-.527 2.408-1.806 0-1.28-1.129-1.806-2.559-1.806h-.978v3.537h.075zm0-5.644h.903c1.506 0 2.258-.602 2.258-1.58 0-.978-.752-1.43-2.032-1.43-.602 0-.978 0-1.204.075v2.935h.075zm-2.785-4.74c.753-.15 2.183-.301 3.613-.301 1.731 0 2.785.15 3.688.677.903.451 1.505 1.354 1.505 2.483s-.677 2.107-2.032 2.634c1.43.376 2.484 1.505 2.484 3.085 0 1.128-.527 2.032-1.28 2.633-.903.753-2.408 1.13-4.892 1.13-1.354 0-2.408-.076-3.086-.151v-12.19zM229.553 34.389h2.785v9.105h-2.785v-9.105zm1.43-1.204c-.978 0-1.581-.678-1.581-1.505 0-.828.603-1.505 1.581-1.505.979 0 1.581.677 1.581 1.505 0 .828-.602 1.505-1.581 1.505zM241.067 38.076c0-.15 0-.376-.075-.527-.226-.752-.753-1.279-1.505-1.279-1.054 0-1.882.903-1.882 2.558 0 1.355.677 2.408 1.806 2.408.753 0 1.28-.451 1.506-1.128.075-.226.075-.527.075-.753v-1.28h.075zm2.785 4.139c0 1.73-.376 3.16-1.355 4.138-.978.828-2.333 1.129-3.688 1.129-1.204 0-2.408-.226-3.236-.677l.527-2.183c.602.301 1.58.678 2.634.678 1.355 0 2.333-.678 2.333-2.408v-.602c-.527.752-1.43 1.204-2.408 1.204-2.258 0-3.839-1.806-3.839-4.44 0-2.934 1.882-4.816 4.14-4.816 1.204 0 2.032.527 2.483 1.28l.076-1.054h2.408c-.075.602-.075 1.355-.075 2.709v5.041zM251.531 40.634c.752.376 1.957.752 3.161.752 1.279 0 1.957-.527 1.957-1.354 0-.753-.602-1.204-2.108-1.73-2.107-.753-3.462-1.882-3.462-3.763 0-2.182 1.806-3.763 4.742-3.763 1.43 0 2.408.301 3.161.602l-.602 2.258a5.734 5.734 0 00-2.559-.602c-1.204 0-1.807.602-1.807 1.204 0 .828.678 1.129 2.334 1.806 2.182.827 3.236 1.956 3.236 3.762 0 2.107-1.581 3.913-5.043 3.913-1.43 0-2.86-.376-3.537-.752l.527-2.333zM261.913 34.389h2.786v9.105h-2.786v-9.105zm1.355-1.204c-.978 0-1.58-.678-1.58-1.505 0-.828.602-1.505 1.58-1.505.979 0 1.581.677 1.581 1.505.075.828-.527 1.505-1.581 1.505zM267.639 41.086c.527.3 1.581.677 2.409.677.828 0 1.204-.301 1.204-.752 0-.452-.301-.678-1.279-1.054-1.882-.602-2.635-1.655-2.56-2.709 0-1.73 1.431-3.01 3.689-3.01 1.054 0 1.957.226 2.559.527l-.451 1.956c-.377-.225-1.205-.526-1.958-.526-.677 0-1.053.3-1.053.752s.376.677 1.43 1.054c1.731.602 2.409 1.505 2.409 2.784 0 1.73-1.28 2.934-3.915 2.934-1.204 0-2.258-.3-2.935-.677l.451-1.956zM279.453 31.905v2.483h2.033v2.107h-2.033v3.31c0 1.13.302 1.581 1.13 1.581.376 0 .602 0 .828-.075v2.182c-.377.15-1.054.226-1.807.226-.903 0-1.656-.301-2.108-.753-.527-.527-.753-1.43-.753-2.709v-3.762h-1.204v-2.107h1.204v-1.73l2.71-.753zM289.235 37.925c0-.678-.301-1.882-1.581-1.882-1.204 0-1.655 1.129-1.731 1.882h3.312zm-3.312 1.88c.076 1.205 1.204 1.731 2.559 1.731.979 0 1.731-.15 2.484-.376l.376 1.957c-.903.376-2.032.602-3.236.602-3.086 0-4.817-1.806-4.817-4.666 0-2.332 1.43-4.89 4.591-4.89 2.935 0 4.064 2.332 4.064 4.59 0 .45-.075.902-.075 1.128l-5.946-.075zM294.278 37.399c0-1.355 0-2.258-.075-3.01h2.409l.075 1.73h.076c.451-1.354 1.58-1.88 2.408-1.88.226 0 .377 0 .603.075v2.633c-.226 0-.452-.075-.753-.075-1.054 0-1.732.527-1.957 1.43 0 .15-.076.376-.076.602v4.59h-2.785l.075-6.095zM301.956 41.086c.526.3 1.58.677 2.408.677.828 0 1.205-.301 1.205-.752 0-.452-.301-.678-1.28-1.054-1.882-.602-2.635-1.655-2.559-2.709 0-1.73 1.43-3.01 3.688-3.01 1.054 0 1.958.226 2.56.527l-.452 1.956c-.376-.225-1.204-.526-1.957-.526-.678 0-1.054.3-1.054.752s.376.677 1.43 1.054c1.732.602 2.409 1.505 2.409 2.784 0 1.73-1.28 2.934-3.914 2.934-1.205 0-2.259-.3-2.936-.677l.452-1.956zM319.416 41.687c1.129 0 1.807-1.129 1.807-2.709 0-1.355-.527-2.709-1.807-2.709-1.354 0-1.881 1.355-1.881 2.709.075 1.505.752 2.709 1.881 2.709zm0 2.032c-2.634 0-4.666-1.731-4.666-4.741 0-2.935 1.957-4.816 4.817-4.816 2.785 0 4.591 1.956 4.591 4.666 0 3.386-2.333 4.89-4.742 4.89zM326.943 43.493V36.42h-1.205v-2.107h1.205v-.376c0-1.129.301-2.333 1.129-3.085.753-.678 1.656-.903 2.484-.903.602 0 1.054.075 1.506.15l-.076 2.182a2.81 2.81 0 00-.903-.15c-.903 0-1.28.752-1.28 1.655v.452h1.807v2.107h-1.807v7.148h-2.86zM341.015 36.495h1.129c1.43 0 2.258-.677 2.258-1.806s-.753-1.73-2.107-1.73c-.678 0-1.054.075-1.28.075v3.461zm-2.785-5.342c.904-.15 2.258-.301 3.764-.301 1.881 0 3.161.3 4.064.978.752.602 1.129 1.505 1.129 2.633 0 1.58-1.129 2.71-2.183 3.086v.075c.903.376 1.355 1.204 1.656 2.332.376 1.43.753 3.086.978 3.537h-2.86c-.15-.376-.526-1.354-.828-2.934-.376-1.58-.903-2.032-2.032-2.032h-.828v4.966h-2.784v-12.34h-.076zM358.256 40.558c0 1.204 0 2.182.075 2.935h-2.408l-.151-1.28h-.075c-.377.527-1.204 1.505-2.86 1.505-1.882 0-3.161-1.128-3.161-3.988v-5.342h2.784v4.89c0 1.355.452 2.108 1.43 2.108.753 0 1.205-.527 1.43-.979.076-.15.076-.376.076-.601v-5.418h2.784v6.17h.076zM361.19 41.086c.527.3 1.581.677 2.409.677.828 0 1.204-.301 1.204-.752 0-.452-.301-.678-1.279-1.054-1.882-.602-2.635-1.655-2.56-2.709 0-1.73 1.43-3.01 3.689-3.01 1.054 0 1.957.226 2.559.527l-.452 1.956c-.376-.225-1.204-.526-1.957-.526-.677 0-1.054.3-1.054.752s.377.677 1.431 1.054c1.731.602 2.409 1.505 2.409 2.784 0 1.73-1.28 2.934-3.915 2.934-1.204 0-2.258-.3-2.936-.677l.452-1.956zM369.764 41.086c.527.3 1.581.677 2.409.677.828 0 1.204-.301 1.204-.752 0-.452-.301-.678-1.279-1.054-1.882-.602-2.635-1.655-2.56-2.709 0-1.73 1.431-3.01 3.689-3.01 1.054 0 1.957.226 2.559.527l-.451 1.956c-.377-.225-1.205-.526-1.958-.526-.677 0-1.053.3-1.053.752s.376.677 1.43 1.054c1.731.602 2.409 1.505 2.409 2.784 0 1.73-1.28 2.934-3.915 2.934-1.204 0-2.258-.3-2.936-.677l.452-1.956zM378.498 34.389h2.785v9.105h-2.785v-9.105zm1.43-1.204c-.978 0-1.58-.678-1.58-1.505 0-.828.602-1.505 1.58-1.505.979 0 1.581.677 1.581 1.505 0 .828-.602 1.505-1.581 1.505zM389.033 39.205c-1.505 0-2.634.376-2.634 1.43 0 .752.451 1.053 1.129 1.053.677 0 1.279-.452 1.43-1.054.075-.15.075-.3.075-.451v-.978zm2.71 2.107c0 .827 0 1.73.151 2.182h-2.56l-.15-.903h-.075c-.603.752-1.506 1.128-2.56 1.128-1.807 0-2.936-1.354-2.936-2.784 0-2.332 2.108-3.461 5.345-3.461v-.075c0-.452-.226-1.204-1.656-1.204-.903 0-1.882.3-2.484.677l-.527-1.806c.602-.376 1.882-.828 3.538-.828 3.011 0 3.99 1.806 3.99 3.913v3.16h-.076zM111.164 64.638c-.602.301-1.731.602-3.161.602-2.86 0-5.569-1.806-5.569-6.095 0-3.537 2.257-6.246 6.021-6.246 1.505 0 2.408.301 2.709.527l-.301.677c-.602-.3-1.43-.526-2.484-.526-3.161 0-5.118 2.107-5.118 5.568 0 3.236 1.807 5.342 5.043 5.342.979 0 1.957-.225 2.634-.526l.226.677zM117.788 56.512v.752h-2.71v7.75h-.828v-7.75h-2.785v-.752h6.323zM124.337 60.498c-1.882-.075-4.291.226-4.291 2.258 0 1.204.828 1.806 1.656 1.806 1.43 0 2.183-.903 2.484-1.731.075-.15.075-.376.075-.527v-1.806h.076zm.903 2.483c0 .678 0 1.355.15 2.032h-.752l-.151-1.204a3.22 3.22 0 01-2.71 1.43c-1.731 0-2.484-1.204-2.484-2.333 0-1.956 1.731-3.16 5.119-3.085v-.226c0-.828-.151-2.483-2.183-2.483-.753 0-1.506.226-2.108.602l-.226-.602c.753-.527 1.732-.752 2.484-.752 2.409 0 2.936 1.806 2.936 3.386v3.235h-.075zM129.083 61.703c0 .226 0 .452.075.678.377 1.279 1.506 2.182 2.786 2.182 1.957 0 3.011-1.58 3.011-3.838 0-1.88-1.054-3.612-2.936-3.612-1.205 0-2.409.828-2.785 2.258-.076.225-.151.526-.151.752v1.58zm-.828-2.483c0-1.053 0-1.88-.075-2.709h.828l.075 1.58c.602-1.128 1.656-1.805 3.162-1.805 2.183 0 3.613 1.806 3.613 4.289 0 3.01-1.807 4.59-3.839 4.59-1.205 0-2.258-.527-2.861-1.58v4.89h-.828V59.22h-.075zM139.234 56.512v7.826h3.462v-7.826h.903v7.826h3.387v-7.826h.903v8.503h-9.483v-8.503h.828zM151.802 56.511v4.214c0 1.354 0 2.107-.076 3.386.603-1.054.904-1.656 1.581-2.709l3.237-4.891h.904v8.503h-.829V60.8c0-1.43 0-2.257.076-3.386-.678 1.204-1.129 1.956-1.732 2.86-.978 1.43-2.107 3.084-3.161 4.74h-.904v-8.503h.904zM166.254 60.047c0-1.203-.452-3.01-2.484-3.01-1.882 0-2.635 1.656-2.786 3.01h5.27zm-5.345.678c0 2.709 1.506 3.762 3.237 3.762 1.204 0 1.882-.226 2.334-.451l.225.677c-.301.15-1.204.527-2.634.527-2.409 0-3.915-1.806-3.915-4.29 0-2.859 1.581-4.59 3.764-4.59 2.785 0 3.312 2.634 3.312 3.838v.527h-6.323zM175.355 64.337c.377.075.828.075 1.431.075 1.129 0 2.258-.376 2.935-1.129.452-.526.678-1.128.678-2.031 0-1.129-.452-1.881-1.204-2.333-.678-.451-1.581-.602-2.56-.602-.376 0-.978 0-1.355.075v5.945h.075zm5.119-11.287v.677h-5.043v3.988c.376-.075 1.129-.075 1.505-.075 1.054 0 2.108.226 2.861.677.978.527 1.581 1.505 1.581 2.935 0 1.128-.377 1.881-.904 2.483-.903.903-2.333 1.28-3.839 1.28-.903 0-1.581-.076-2.108-.076v-11.89h5.947zM184.614 61.703c0 .226 0 .451.076.677.376 1.28 1.505 2.182 2.785 2.182 1.957 0 3.011-1.58 3.011-3.837 0-1.881-1.054-3.612-2.936-3.612-1.204 0-2.409.828-2.785 2.257-.075.226-.151.527-.151.753v1.58zm-.828-2.483c0-1.054 0-1.881-.075-2.71h.828l.075 1.581c.602-1.129 1.656-1.806 3.162-1.806 2.183 0 3.613 1.806 3.613 4.29 0 3.01-1.806 4.59-3.839 4.59-1.204 0-2.258-.527-2.86-1.58v4.89h-.829V59.22h-.075zM198.466 60.499c-1.806-.075-4.29.226-4.29 2.257 0 1.204.828 1.806 1.656 1.806 1.43 0 2.183-.903 2.484-1.73.075-.15.075-.377.075-.527v-1.806h.075zm.829 2.483c0 .677 0 1.355.15 2.032h-.753l-.15-1.204a3.22 3.22 0 01-2.71 1.43c-1.732 0-2.484-1.204-2.484-2.333 0-1.956 1.731-3.16 5.118-3.085v-.226c0-.828-.15-2.483-2.183-2.483-.752 0-1.505.226-2.107.602l-.301-.602c.752-.527 1.731-.753 2.484-.753 2.409 0 2.936 1.806 2.936 3.386v3.236zM207.351 56.512v.752h-2.71v7.75h-.828v-7.75h-2.786v-.752h6.324zM210.285 64.412c.376 0 .753.076 1.28.076 1.355 0 3.086-.452 3.086-2.107 0-1.73-1.806-2.107-3.161-2.107-.452 0-.829 0-1.28.075v4.063h.075zm0-7.9v3.085c.376-.076.979-.076 1.43-.076 1.882 0 3.839.602 3.839 2.86 0 .752-.301 1.279-.677 1.73-.828.828-2.258.979-3.463.979-.753 0-1.43-.076-1.957-.076v-8.502h.828zM222.552 57.189c-.452-.075-.903-.075-1.506-.075-1.129 0-2.709.3-2.709 1.73 0 1.28 1.656 1.731 2.634 1.731h1.581V57.19zm.828 7.826h-.828v-3.838h-1.506c-.677 0-1.129.15-1.505.376-.753.527-.979 1.806-1.355 2.71-.151.3-.226.526-.376.676h-.904c.151-.3.377-.601.527-.978.452-.903.527-2.031 1.43-2.709.226-.15.527-.3.904-.376-1.205-.15-2.259-.828-2.259-2.107a2.1 2.1 0 01.904-1.73c.677-.452 1.581-.602 2.634-.602.829 0 1.657.075 2.409.15v8.428h-.075zM239.492 64.638c-.602.301-1.731.602-3.161.602-2.86 0-5.569-1.806-5.569-6.095 0-3.537 2.258-6.246 6.021-6.246 1.505 0 2.408.301 2.709.527l-.301.677c-.602-.3-1.43-.526-2.484-.526-3.161 0-5.117 2.107-5.117 5.568 0 3.236 1.806 5.342 5.042 5.342.979 0 1.957-.225 2.634-.526l.226.677zM246.034 56.512v.752h-2.71v7.75h-.828v-7.75h-2.785v-.752h6.323zM252.658 60.498c-1.882-.075-4.291.226-4.291 2.258 0 1.204.828 1.806 1.656 1.806 1.43 0 2.183-.903 2.484-1.73.076-.151.076-.377.076-.528v-1.806h.075zm.828 2.484c0 .677 0 1.354.151 2.031h-.753l-.151-1.204a3.22 3.22 0 01-2.71 1.43c-1.731 0-2.484-1.204-2.484-2.333 0-1.956 1.731-3.16 5.119-3.085v-.225c0-.828-.151-2.484-2.183-2.484-.753 0-1.506.226-2.108.602l-.301-.602c.753-.526 1.731-.752 2.484-.752 2.409 0 2.936 1.806 2.936 3.386v3.236zM257.404 61.703c0 .225 0 .451.076.677.376 1.279 1.505 2.182 2.785 2.182 1.957 0 3.011-1.58 3.011-3.838 0-1.88-1.054-3.612-2.936-3.612-1.204 0-2.409.828-2.785 2.258-.075.226-.151.527-.151.752v1.58zm-.903-2.484c0-1.053 0-1.88-.075-2.709h.828l.075 1.58c.602-1.128 1.656-1.805 3.162-1.805 2.183 0 3.613 1.806 3.613 4.289 0 3.01-1.807 4.59-3.839 4.59-1.205 0-2.258-.527-2.861-1.58v4.89h-.828V59.22h-.075zM267.563 56.512v7.826h3.462v-7.826h.828v7.826h3.462v-7.826h.828v8.503h-9.483v-8.503h.903zM280.056 56.511v4.214c0 1.355 0 2.107-.076 3.387.603-1.054.904-1.656 1.581-2.71l3.237-4.89h.903v8.502h-.828v-4.213c0-1.43 0-2.258.076-3.387-.678 1.204-1.129 1.957-1.732 2.86-.978 1.43-2.107 3.085-3.161 4.74h-.904v-8.502h.904zM294.508 60.048c0-1.204-.452-3.01-2.485-3.01-1.881 0-2.634 1.656-2.785 3.01h5.27zm-5.345.678c0 2.709 1.505 3.762 3.237 3.762 1.204 0 1.882-.226 2.333-.451l.226.677c-.301.15-1.204.526-2.634.526-2.409 0-3.915-1.805-3.915-4.289 0-2.859 1.581-4.59 3.764-4.59 2.785 0 3.312 2.634 3.312 3.838v.527h-6.323zM310.836 64.638c-.602.301-1.731.602-3.161.602-2.86 0-5.57-1.806-5.57-6.095 0-3.537 2.258-6.246 6.021-6.246 1.506 0 2.409.301 2.71.527l-.301.677c-.602-.3-1.43-.526-2.484-.526-3.161 0-5.118 2.107-5.118 5.568 0 3.236 1.807 5.342 5.043 5.342.978 0 1.957-.225 2.634-.526l.226.677zM318.516 60.048c0-1.204-.451-3.01-2.484-3.01-1.882 0-2.634 1.656-2.785 3.01h5.269zm-5.419.678c0 2.709 1.505 3.762 3.236 3.762 1.205 0 1.882-.226 2.334-.451l.226.677c-.301.15-1.205.526-2.635.526-2.409 0-3.914-1.805-3.914-4.289 0-2.859 1.581-4.59 3.764-4.59 2.785 0 3.312 2.634 3.312 3.838v.527h-6.323zM327.92 64.638c-.376.15-1.28.527-2.484.527-2.409 0-4.065-1.806-4.065-4.365 0-2.708 1.807-4.514 4.366-4.514 1.054 0 1.882.3 2.183.526l-.301.678a3.82 3.82 0 00-1.957-.527c-2.258 0-3.388 1.73-3.388 3.762 0 2.258 1.355 3.687 3.313 3.687.978 0 1.656-.3 2.107-.526l.226.752zM335.976 56.512v.752h-2.786v7.75h-.828v-7.75h-2.71v-.752h6.324zM338.907 61.703c0 .225 0 .451.075.677.377 1.28 1.506 2.182 2.786 2.182 1.957 0 3.011-1.58 3.011-3.837 0-1.882-1.054-3.612-2.936-3.612-1.204 0-2.409.827-2.785 2.257-.075.226-.151.527-.151.753v1.58zm-.828-2.483c0-1.054 0-1.882-.075-2.71h.828l.075 1.58c.602-1.128 1.656-1.805 3.162-1.805 2.183 0 3.613 1.806 3.613 4.289 0 3.01-1.806 4.59-3.839 4.59-1.204 0-2.258-.527-2.861-1.58v4.891h-.828V59.22h-.075zM355.997 65.014h-.828V56.51h.828v8.503zm-6.926-.677c.377.075.753.075 1.205.075 1.355 0 2.86-.602 2.86-2.107 0-1.656-1.43-2.107-2.785-2.107-.452 0-.903 0-1.28.075v4.063zm0-7.826v3.085c.301-.075.828-.075 1.355-.075 1.807 0 3.538.752 3.538 2.784 0 .752-.301 1.354-.677 1.806-.828.828-2.108.978-3.162.978-.753 0-1.43-.075-1.957-.075V56.51h.903zM364.871 59.144c.376.15.903.15 1.506.15 2.107 0 3.387-1.053 3.387-2.934 0-1.881-1.355-2.71-3.237-2.71-.753 0-1.355.076-1.656.151v5.343zm-.828-5.945c.677-.15 1.581-.225 2.559-.225 1.431 0 2.485.376 3.162.978.602.527.903 1.354.903 2.333 0 1.053-.301 1.806-.828 2.407-.752.903-2.032 1.355-3.462 1.355-.527 0-1.054 0-1.431-.15v5.116h-.828V53.2h-.075zM376.16 64.487c1.732 0 3.162-1.58 3.162-3.763 0-1.58-.828-3.687-3.086-3.687-2.183 0-3.162 1.956-3.162 3.763 0 2.106 1.355 3.687 3.086 3.687zm-.075.752c-2.183 0-3.839-1.73-3.839-4.364 0-2.935 1.882-4.515 3.99-4.515 2.333 0 3.914 1.806 3.914 4.364 0 3.16-2.183 4.515-4.065 4.515zM388.658 64.637c-.376.15-1.279.526-2.484.526-2.409 0-4.065-1.806-4.065-4.364 0-2.709 1.807-4.515 4.366-4.515 1.054 0 1.882.301 2.183.527l-.301.677a3.818 3.818 0 00-1.957-.527c-2.258 0-3.387 1.731-3.387 3.763 0 2.257 1.355 3.687 3.312 3.687.979 0 1.656-.301 2.108-.527l.225.753zM396.561 64.637c-.377.15-1.28.526-2.484.526-2.409 0-4.065-1.806-4.065-4.364 0-2.709 1.806-4.515 4.366-4.515 1.054 0 1.882.301 2.183.527l-.301.677a3.824 3.824 0 00-1.957-.527c-2.259 0-3.388 1.731-3.388 3.763 0 2.257 1.355 3.687 3.312 3.687.979 0 1.656-.301 2.108-.527l.226.753zM399.724 56.51v4.215c0 1.354 0 2.106-.076 3.386.603-1.054.904-1.656 1.581-2.71l3.237-4.89h.903v8.503h-.828V60.8c0-1.43 0-2.258.076-3.386-.678 1.204-1.129 1.956-1.732 2.86-.978 1.429-2.107 3.084-3.161 4.74h-.904V56.51h.904zM409.353 56.51v4.215c0 1.354 0 2.106-.076 3.386.603-1.054.904-1.656 1.581-2.71l3.237-4.89h.903v8.503h-.828V60.8c0-1.43 0-2.258.076-3.386-.678 1.204-1.13 1.956-1.732 2.86-.978 1.429-2.108 3.084-3.161 4.74h-.904V56.51h.904z" fill="#F3F2F2"/></svg>