<svg width="183" height="21" viewBox="0 0 183 21" fill="none" xmlns="http://www.w3.org/2000/svg">
<path d="M2.0293 14.0575H0V0.899634H2.0293V6.63648H8.89153V0.899634H10.9208V14.0575H8.89153V8.05753H2.0293V14.0575Z" fill="#224CFF"/>
<path d="M16.7774 5.18911L14.935 4.61016C15.2376 3.27683 15.8695 2.2856 16.8308 1.63648C17.792 0.969809 19.0203 0.636475 20.5156 0.636475C22.2244 0.636475 23.4883 0.987352 24.3071 1.68911C25.126 2.37332 25.5354 3.42595 25.5354 4.847V12.4259H27.7516V14.0575H23.3459L23.5061 12.3996V10.6365L21.7171 13.2681C21.2721 13.6189 20.7559 13.8821 20.1684 14.0575C19.5988 14.2154 19.0114 14.2944 18.4062 14.2944C17.3559 14.2944 16.4837 13.9786 15.7894 13.347C15.0952 12.7154 14.7481 11.8295 14.7481 10.6891C14.7481 9.58384 15.0774 8.79437 15.736 8.32069C16.4125 7.82946 17.2046 7.46104 18.1124 7.21542C19.0381 6.96981 19.9993 6.75051 20.9962 6.55753C22.0108 6.36454 22.8475 6.0049 23.5061 5.47858V4.92595C23.5061 4.0663 23.248 3.39086 22.7318 2.89963C22.2333 2.39086 21.4501 2.13648 20.3821 2.13648C19.2606 2.13648 18.4418 2.39086 17.9255 2.89963C17.4093 3.39086 17.0266 4.15402 16.7774 5.18911ZM16.9109 10.3996C16.9109 11.154 17.1245 11.7417 17.5517 12.1628C17.9967 12.5663 18.5486 12.7681 19.2072 12.7681C20.0794 12.7681 20.8716 12.5137 21.5836 12.0049C22.3134 11.4961 22.9543 10.654 23.5061 9.47858V5.847C23.0255 6.40841 22.4114 6.82069 21.6637 7.08384C20.9161 7.32946 20.1862 7.57507 19.4742 7.82069C18.78 8.04876 18.1747 8.347 17.6585 8.71542C17.1601 9.08384 16.9109 9.64525 16.9109 10.3996Z" fill="#224CFF"/>
<path d="M30.0208 7.47858C30.0208 6.47858 30.1899 5.55753 30.5281 4.71542C30.8663 3.87332 31.3292 3.15402 31.9166 2.55753C32.504 1.96104 33.1983 1.49612 33.9993 1.16279C34.8181 0.811914 35.6904 0.636475 36.616 0.636475C38.0401 0.636475 39.2951 1.02244 40.3809 1.79437C41.4846 2.5663 42.1788 3.60139 42.4636 4.89963L40.5945 5.61016C40.3631 4.39963 39.8825 3.49612 39.1526 2.89963C38.4406 2.2856 37.5595 1.97858 36.5092 1.97858C35.281 1.97858 34.2663 2.46981 33.4653 3.45226C32.682 4.41718 32.2904 5.75928 32.2904 7.47858C32.2904 9.21542 32.6998 10.5663 33.5187 11.5312C34.3375 12.4786 35.3433 12.9523 36.5359 12.9523C37.604 12.9523 38.4851 12.6365 39.1793 12.0049C39.8736 11.3558 40.3453 10.4259 40.5945 9.21542L42.4636 9.92595C42.1966 11.2593 41.5113 12.3295 40.4076 13.1365C39.3218 13.9259 38.0579 14.3207 36.616 14.3207C35.6904 14.3207 34.8181 14.154 33.9993 13.8207C33.1983 13.4698 32.504 12.9961 31.9166 12.3996C31.3292 11.8031 30.8663 11.0838 30.5281 10.2417C30.1899 9.39963 30.0208 8.47858 30.0208 7.47858Z" fill="#224CFF"/>
<path d="M51.3697 14.0575H49.3404V2.32069H44.4808V0.899634H56.2294V2.32069H51.3697V14.0575Z" fill="#224CFF"/>
<path d="M60.1931 5.18911L58.3507 4.61016C58.6533 3.27683 59.2852 2.2856 60.2465 1.63648C61.2077 0.969809 62.436 0.636475 63.9312 0.636475C65.6401 0.636475 66.904 0.987352 67.7228 1.68911C68.5417 2.37332 68.9511 3.42595 68.9511 4.847V12.4259H71.1673V14.0575H66.7616L66.9218 12.3996V10.6365L65.1328 13.2681C64.6878 13.6189 64.1715 13.8821 63.5841 14.0575C63.0145 14.2154 62.4271 14.2944 61.8218 14.2944C60.7716 14.2944 59.8993 13.9786 59.2051 13.347C58.5109 12.7154 58.1638 11.8295 58.1638 10.6891C58.1638 9.58384 58.4931 8.79437 59.1517 8.32069C59.8281 7.82946 60.6203 7.46104 61.5281 7.21542C62.4538 6.96981 63.415 6.75051 64.4119 6.55753C65.4265 6.36454 66.2631 6.0049 66.9218 5.47858V4.92595C66.9218 4.0663 66.6637 3.39086 66.1474 2.89963C65.649 2.39086 64.8658 2.13648 63.7977 2.13648C62.6763 2.13648 61.8574 2.39086 61.3412 2.89963C60.825 3.39086 60.4423 4.15402 60.1931 5.18911ZM60.3266 10.3996C60.3266 11.154 60.5402 11.7417 60.9674 12.1628C61.4124 12.5663 61.9642 12.7681 62.6229 12.7681C63.4951 12.7681 64.2873 12.5137 64.9993 12.0049C65.7291 11.4961 66.3699 10.654 66.9218 9.47858V5.847C66.4412 6.40841 65.827 6.82069 65.0794 7.08384C64.3318 7.32946 63.6019 7.57507 62.8899 7.82069C62.1957 8.04876 61.5904 8.347 61.0742 8.71542C60.5758 9.08384 60.3266 9.64525 60.3266 10.3996Z" fill="#224CFF"/>
<path d="M85.0198 10.347C85.0198 11.54 84.5926 12.461 83.7382 13.1102C82.8837 13.7417 81.5754 14.0575 79.8131 14.0575H74.4194V0.899634H79.5728C81.2638 0.899634 82.4832 1.18911 83.2309 1.76805C83.9785 2.347 84.3523 3.1277 84.3523 4.11016C84.3523 4.74174 84.1743 5.32946 83.8183 5.87332C83.4801 6.39963 82.8926 6.82069 82.056 7.13648C83.124 7.39963 83.8806 7.81191 84.3256 8.37332C84.7884 8.93472 85.0198 9.59262 85.0198 10.347ZM79.6262 2.32069H76.4487V6.66279H79.8131C80.5785 6.66279 81.1837 6.45226 81.6288 6.03121C82.0916 5.59261 82.323 5.04876 82.323 4.39963C82.323 3.71542 82.1005 3.19788 81.6555 2.847C81.2104 2.49612 80.534 2.32069 79.6262 2.32069ZM79.8398 7.74174H76.4487V12.6365H79.733C80.801 12.6365 81.611 12.4435 82.1628 12.0575C82.7146 11.6716 82.9905 11.0575 82.9905 10.2154C82.9905 9.46103 82.7146 8.86454 82.1628 8.42595C81.6288 7.96981 80.8544 7.74174 79.8398 7.74174Z" fill="#224CFF"/>
<path d="M90.373 14.0575H88.3437V0.899634H90.373V6.63648H97.2353V0.899634H99.2646V14.0575H97.2353V8.05753H90.373V14.0575Z" fill="#224CFF"/>
<path d="M105.575 14.0575H103.546V0.899634H105.575V11.5049L112.811 0.899634H114.84V14.0575H112.811V3.45226L105.575 14.0575Z" fill="#224CFF"/>
<path d="M128.058 14.0575L121.142 7.82069V14.0575H119.113V0.899634H121.142V6.82068L127.657 0.899634H130.114L123.145 7.16279L130.648 14.0575H128.058Z" fill="#224CFF"/>
<path d="M135.672 14.0575H133.055V11.5312H135.672V14.0575Z" fill="#224CFF"/>
<path d="M141.637 14.0575H139.608V0.899634H150.315V14.0575H148.286V2.32069H141.637V14.0575Z" fill="#224CFF"/>
<path d="M161.598 14.3207C160.352 14.3207 159.275 13.9435 158.367 13.1891C157.477 12.4172 156.89 11.3207 156.605 9.89963V20.6365H154.575V0.899634H156.605V5.0049C156.907 3.58384 157.495 2.5049 158.367 1.76805C159.257 1.01367 160.316 0.636475 161.544 0.636475C162.257 0.636475 162.951 0.776826 163.627 1.05753C164.304 1.33823 164.9 1.75928 165.416 2.32069C165.932 2.86455 166.342 3.5663 166.644 4.42595C166.965 5.2856 167.125 6.29437 167.125 7.45226C167.125 8.61016 166.965 9.61893 166.644 10.4786C166.342 11.3382 165.932 12.0575 165.416 12.6365C164.918 13.1979 164.33 13.6189 163.654 13.8996C162.995 14.1803 162.31 14.3207 161.598 14.3207ZM164.882 7.47858C164.882 6.5663 164.766 5.77683 164.535 5.11016C164.304 4.42595 164.001 3.86455 163.627 3.42595C163.253 2.96981 162.808 2.63648 162.292 2.42595C161.794 2.19788 161.269 2.08384 160.717 2.08384C159.542 2.08384 158.563 2.53998 157.78 3.45226C157.014 4.36455 156.631 5.70665 156.631 7.47858C156.631 9.25051 157.023 10.6014 157.806 11.5312C158.59 12.461 159.595 12.9259 160.824 12.9259C161.909 12.9259 162.853 12.4786 163.654 11.5838C164.473 10.6716 164.882 9.30314 164.882 7.47858Z" fill="#224CFF"/>
<path d="M176.458 0.636475C177.366 0.636475 178.212 0.803141 178.995 1.13648C179.796 1.46981 180.49 1.94349 181.078 2.55753C181.683 3.15402 182.154 3.87332 182.493 4.71542C182.831 5.55753 183 6.47858 183 7.47858C183 8.47858 182.831 9.39963 182.493 10.2417C182.154 11.0838 181.692 11.8119 181.104 12.4259C180.517 13.0224 179.823 13.4874 179.021 13.8207C178.22 14.154 177.366 14.3207 176.458 14.3207C175.55 14.3207 174.696 14.154 173.895 13.8207C173.094 13.4874 172.4 13.0224 171.812 12.4259C171.225 11.8119 170.753 11.0838 170.397 10.2417C170.059 9.39963 169.89 8.47858 169.89 7.47858C169.89 6.47858 170.059 5.55753 170.397 4.71542C170.753 3.87332 171.225 3.15402 171.812 2.55753C172.4 1.94349 173.094 1.46981 173.895 1.13648C174.696 0.803141 175.55 0.636475 176.458 0.636475ZM176.485 2.0049C175.221 2.0049 174.18 2.47858 173.361 3.42595C172.56 4.35577 172.159 5.70665 172.159 7.47858C172.159 9.1277 172.56 10.4523 173.361 11.4523C174.18 12.4523 175.221 12.9523 176.485 12.9523C177.767 12.9523 178.79 12.4523 179.556 11.4523C180.339 10.4523 180.73 9.1277 180.73 7.47858C180.73 5.70665 180.339 4.35577 179.556 3.42595C178.79 2.47858 177.767 2.0049 176.485 2.0049Z" fill="#224CFF"/>
</svg>
