<svg width="183" height="21" viewBox="0 0 183 21" fill="none" xmlns="http://www.w3.org/2000/svg">
<path d="M2.0293 14.0574H0V0.899512H2.0293V6.63635H8.89153V0.899512H10.9208V14.0574H8.89153V8.0574H2.0293V14.0574Z" fill="#2E2468"/>
<path d="M16.7774 5.18898L14.935 4.61004C15.2376 3.2767 15.8695 2.28548 16.8308 1.63635C17.792 0.969687 19.0203 0.636353 20.5156 0.636353C22.2244 0.636353 23.4883 0.98723 24.3071 1.68898C25.126 2.3732 25.5354 3.42583 25.5354 4.84688V12.4258H27.7516V14.0574H23.3459L23.5061 12.3995V10.6364L21.7171 13.2679C21.2721 13.6188 20.7559 13.882 20.1684 14.0574C19.5988 14.2153 19.0114 14.2942 18.4062 14.2942C17.3559 14.2942 16.4837 13.9785 15.7894 13.3469C15.0952 12.7153 14.7481 11.8293 14.7481 10.689C14.7481 9.58372 15.0774 8.79425 15.736 8.32056C16.4125 7.82934 17.2046 7.46091 18.1124 7.2153C19.0381 6.96969 19.9993 6.75039 20.9962 6.5574C22.0108 6.36442 22.8475 6.00477 23.5061 5.47846V4.92583C23.5061 4.06618 23.248 3.39074 22.7318 2.89951C22.2333 2.39074 21.4501 2.13635 20.3821 2.13635C19.2606 2.13635 18.4418 2.39074 17.9255 2.89951C17.4093 3.39074 17.0266 4.1539 16.7774 5.18898ZM16.9109 10.3995C16.9109 11.1539 17.1245 11.7416 17.5517 12.1627C17.9967 12.5662 18.5486 12.7679 19.2072 12.7679C20.0794 12.7679 20.8716 12.5135 21.5836 12.0048C22.3134 11.496 22.9543 10.6539 23.5061 9.47846V5.84688C23.0255 6.40828 22.4114 6.82056 21.6637 7.08372C20.9161 7.32934 20.1862 7.57495 19.4742 7.82056C18.78 8.04863 18.1747 8.34688 17.6585 8.7153C17.1601 9.08372 16.9109 9.64512 16.9109 10.3995Z" fill="#2E2468"/>
<path d="M30.0208 7.47846C30.0208 6.47846 30.1899 5.55741 30.5281 4.7153C30.8663 3.8732 31.3292 3.1539 31.9166 2.55741C32.504 1.96092 33.1983 1.496 33.9993 1.16267C34.8181 0.811792 35.6904 0.636353 36.616 0.636353C38.0401 0.636353 39.2951 1.02232 40.3809 1.79425C41.4846 2.56618 42.1788 3.60127 42.4636 4.89951L40.5945 5.61004C40.3631 4.39951 39.8825 3.496 39.1526 2.89951C38.4406 2.28548 37.5595 1.97846 36.5092 1.97846C35.281 1.97846 34.2663 2.46969 33.4653 3.45214C32.682 4.41706 32.2904 5.75916 32.2904 7.47846C32.2904 9.2153 32.6998 10.5662 33.5187 11.5311C34.3375 12.4785 35.3433 12.9521 36.5359 12.9521C37.604 12.9521 38.4851 12.6364 39.1793 12.0048C39.8736 11.3557 40.3453 10.4258 40.5945 9.2153L42.4636 9.92583C42.1966 11.2592 41.5113 12.3293 40.4076 13.1364C39.3218 13.9258 38.0579 14.3206 36.616 14.3206C35.6904 14.3206 34.8181 14.1539 33.9993 13.8206C33.1983 13.4697 32.504 12.996 31.9166 12.3995C31.3292 11.803 30.8663 11.0837 30.5281 10.2416C30.1899 9.39951 30.0208 8.47846 30.0208 7.47846Z" fill="#2E2468"/>
<path d="M51.3697 14.0574H49.3404V2.32056H44.4808V0.899512H56.2294V2.32056H51.3697V14.0574Z" fill="#2E2468"/>
<path d="M60.1931 5.18898L58.3507 4.61004C58.6533 3.2767 59.2852 2.28548 60.2465 1.63635C61.2077 0.969687 62.436 0.636353 63.9312 0.636353C65.6401 0.636353 66.904 0.98723 67.7228 1.68898C68.5417 2.3732 68.9511 3.42583 68.9511 4.84688V12.4258H71.1673V14.0574H66.7616L66.9218 12.3995V10.6364L65.1328 13.2679C64.6878 13.6188 64.1715 13.882 63.5841 14.0574C63.0145 14.2153 62.4271 14.2942 61.8218 14.2942C60.7716 14.2942 59.8993 13.9785 59.2051 13.3469C58.5109 12.7153 58.1638 11.8293 58.1638 10.689C58.1638 9.58372 58.4931 8.79425 59.1517 8.32056C59.8281 7.82934 60.6203 7.46091 61.5281 7.2153C62.4538 6.96969 63.415 6.75039 64.4119 6.5574C65.4265 6.36442 66.2631 6.00477 66.9218 5.47846V4.92583C66.9218 4.06618 66.6637 3.39074 66.1474 2.89951C65.649 2.39074 64.8658 2.13635 63.7977 2.13635C62.6763 2.13635 61.8574 2.39074 61.3412 2.89951C60.825 3.39074 60.4423 4.1539 60.1931 5.18898ZM60.3266 10.3995C60.3266 11.1539 60.5402 11.7416 60.9674 12.1627C61.4124 12.5662 61.9642 12.7679 62.6229 12.7679C63.4951 12.7679 64.2873 12.5135 64.9993 12.0048C65.7291 11.496 66.3699 10.6539 66.9218 9.47846V5.84688C66.4412 6.40828 65.827 6.82056 65.0794 7.08372C64.3318 7.32934 63.6019 7.57495 62.8899 7.82056C62.1957 8.04863 61.5904 8.34688 61.0742 8.7153C60.5758 9.08372 60.3266 9.64512 60.3266 10.3995Z" fill="#2E2468"/>
<path d="M85.0198 10.3469C85.0198 11.5399 84.5926 12.4609 83.7382 13.11C82.8837 13.7416 81.5754 14.0574 79.8131 14.0574H74.4194V0.899512H79.5728C81.2638 0.899512 82.4832 1.18899 83.2309 1.76793C83.9785 2.34688 84.3523 3.12758 84.3523 4.11004C84.3523 4.74162 84.1743 5.32934 83.8183 5.8732C83.4801 6.39951 82.8926 6.82056 82.056 7.13635C83.124 7.39951 83.8806 7.81179 84.3256 8.37319C84.7884 8.9346 85.0198 9.59249 85.0198 10.3469ZM79.6262 2.32056H76.4487V6.66267H79.8131C80.5785 6.66267 81.1837 6.45214 81.6288 6.03109C82.0916 5.59249 82.323 5.04863 82.323 4.39951C82.323 3.7153 82.1005 3.19776 81.6555 2.84688C81.2104 2.496 80.534 2.32056 79.6262 2.32056ZM79.8398 7.74162H76.4487V12.6364H79.733C80.801 12.6364 81.611 12.4434 82.1628 12.0574C82.7146 11.6714 82.9905 11.0574 82.9905 10.2153C82.9905 9.46091 82.7146 8.86442 82.1628 8.42583C81.6288 7.96969 80.8544 7.74162 79.8398 7.74162Z" fill="#2E2468"/>
<path d="M90.373 14.0574H88.3437V0.899512H90.373V6.63635H97.2353V0.899512H99.2646V14.0574H97.2353V8.0574H90.373V14.0574Z" fill="#2E2468"/>
<path d="M105.575 14.0574H103.546V0.899512H105.575V11.5048L112.811 0.899512H114.84V14.0574H112.811V3.45214L105.575 14.0574Z" fill="#2E2468"/>
<path d="M128.058 14.0574L121.142 7.82056V14.0574H119.113V0.899512H121.142V6.82056L127.657 0.899512H130.114L123.145 7.16267L130.648 14.0574H128.058Z" fill="#2E2468"/>
<path d="M135.672 14.0574H133.055V11.5311H135.672V14.0574Z" fill="#2E2468"/>
<path d="M141.637 14.0574H139.608V0.899512H150.315V14.0574H148.286V2.32056H141.637V14.0574Z" fill="#2E2468"/>
<path d="M161.598 14.3206C160.352 14.3206 159.275 13.9434 158.367 13.189C157.477 12.4171 156.89 11.3206 156.605 9.89951V20.6364H154.575V0.899512H156.605V5.00477C156.907 3.58372 157.495 2.50477 158.367 1.76793C159.257 1.01355 160.316 0.636353 161.544 0.636353C162.257 0.636353 162.951 0.776704 163.627 1.05741C164.304 1.33811 164.9 1.75916 165.416 2.32056C165.932 2.86442 166.342 3.56618 166.644 4.42583C166.965 5.28548 167.125 6.29425 167.125 7.45214C167.125 8.61004 166.965 9.61881 166.644 10.4785C166.342 11.3381 165.932 12.0574 165.416 12.6364C164.918 13.1978 164.33 13.6188 163.654 13.8995C162.995 14.1802 162.31 14.3206 161.598 14.3206ZM164.882 7.47846C164.882 6.56618 164.766 5.7767 164.535 5.11004C164.304 4.42583 164.001 3.86442 163.627 3.42583C163.253 2.96969 162.808 2.63635 162.292 2.42583C161.794 2.19776 161.269 2.08372 160.717 2.08372C159.542 2.08372 158.563 2.53986 157.78 3.45214C157.014 4.36442 156.631 5.70653 156.631 7.47846C156.631 9.25039 157.023 10.6013 157.806 11.5311C158.59 12.4609 159.595 12.9258 160.824 12.9258C161.909 12.9258 162.853 12.4785 163.654 11.5837C164.473 10.6714 164.882 9.30302 164.882 7.47846Z" fill="#2E2468"/>
<path d="M176.458 0.636353C177.366 0.636353 178.212 0.803019 178.995 1.13635C179.796 1.46969 180.49 1.94337 181.078 2.55741C181.683 3.1539 182.154 3.8732 182.493 4.7153C182.831 5.55741 183 6.47846 183 7.47846C183 8.47846 182.831 9.39951 182.493 10.2416C182.154 11.0837 181.692 11.8118 181.104 12.4258C180.517 13.0223 179.823 13.4872 179.021 13.8206C178.22 14.1539 177.366 14.3206 176.458 14.3206C175.55 14.3206 174.696 14.1539 173.895 13.8206C173.094 13.4872 172.4 13.0223 171.812 12.4258C171.225 11.8118 170.753 11.0837 170.397 10.2416C170.059 9.39951 169.89 8.47846 169.89 7.47846C169.89 6.47846 170.059 5.55741 170.397 4.7153C170.753 3.8732 171.225 3.1539 171.812 2.55741C172.4 1.94337 173.094 1.46969 173.895 1.13635C174.696 0.803019 175.55 0.636353 176.458 0.636353ZM176.485 2.00477C175.221 2.00477 174.18 2.47846 173.361 3.42583C172.56 4.35565 172.159 5.70653 172.159 7.47846C172.159 9.12758 172.56 10.4521 173.361 11.4521C174.18 12.4521 175.221 12.9521 176.485 12.9521C177.767 12.9521 178.79 12.4521 179.556 11.4521C180.339 10.4521 180.73 9.12758 180.73 7.47846C180.73 5.70653 180.339 4.35565 179.556 3.42583C178.79 2.47846 177.767 2.00477 176.485 2.00477Z" fill="#2E2468"/>
</svg>
