<svg width="413" height="169" viewBox="0 0 413 169" fill="none" xmlns="http://www.w3.org/2000/svg">
<path d="M37.5406 57C37.2345 57 36.9863 57.2481 36.9863 57.5543L36.9863 113.446C36.9863 113.752 37.2345 114 37.5406 114L64.4663 114C80.2064 114 92.9663 101.24 92.9663 85.5C92.9663 69.7599 80.2064 57 64.4663 57L37.5406 57Z" fill="#FF8585"/>
<ellipse cx="181.435" cy="84.5" rx="84.4698" ry="84.5" fill="#F8D162"/>
<ellipse cx="15.9943" cy="86" rx="15.9943" ry="16" fill="#C8D1FF"/>
<rect width="82.1138" height="82.1138" rx="3" transform="matrix(0.70698 0.707233 -0.70698 0.707233 354.947 27.7793)" fill="#C8D1FF"/>
<path fill-rule="evenodd" clip-rule="evenodd" d="M243.235 60.7415C244.445 59.6096 244.445 57.7746 243.235 56.6427L229.557 43.8494C228.347 42.7175 226.386 42.7175 225.176 43.8494L165.615 99.5619L142.489 79.0537C141.249 77.9544 139.288 78.0065 138.109 79.1702L124.809 92.2925C123.629 93.4562 123.678 95.2907 124.918 96.39L160.945 128.339L163.765 130.977C164.975 132.109 166.937 132.109 168.147 130.977L243.235 60.7415Z" fill="white"/>
<ellipse cx="281.4" cy="86.5" rx="11.4959" ry="11.5" fill="#8CDD94"/>
</svg>
