<svg width="252" height="46" fill="none" xmlns="http://www.w3.org/2000/svg"><path d="M48.72 29.557c.183 7.652-16.04 12.252-25.501 16.396 0 0 19.103-4.28 25.867-10.247 4.296-3.78 3.84-13.664-7.312-12.115-.092 0-.366.41-.457.41 0 0 7.312.546 7.404 5.556z" fill="#224CFF"/><path d="M11.885 15.257c-.822-.227-1.782-.5-2.833-.728l-.32-1.321S29.846 23.318 52.515.82l.822-.82s-.274 1.275-.228 1.23c0 0-.96.683-2.148 2.277-1.874 2.55-3.702 7.424-.64 16.67l-1.005.682s-.732-6.285-3.977-4.372c-1.782 1.048-2.742 7.15-2.742 7.15l-1.462.41s4.936-13.89-3.29-11.659c-7.36 2.004-10.833 8.062-13.21 33.112 0 .182-1.416.456-1.416.456s2.102-13.664-4.114-13.345c-5.073.228-13.939 12.98-13.939 12.98h-2.01c.045 0 23.993-26.188 8.728-30.333z" fill="#224CFF"/><path d="M24.13 14.028c1.873 0 3.839-1.73 4.387-3.871.549-2.14-.457-3.871-2.33-3.871-1.874 0-3.84 1.73-4.388 3.87-.594 2.141.457 3.872 2.33 3.872zm24.59 15.529c.183 7.652-16.04 12.252-25.501 16.396 0 0 19.103-4.28 25.867-10.247 4.296-3.78 3.84-13.664-7.312-12.115-.092 0-.366.41-.457.41 0 0 7.312.546 7.404 5.556z" fill="#224CFF"/><path d="M11.885 15.257c-.822-.227-1.782-.5-2.833-.728l-.32-1.321S29.846 23.318 52.515.82c.457-.456.777-.82.777-.82s-.275 1.275-.229 1.23c0 0-.96.683-2.148 2.277-1.874 2.55-3.702 7.424-.64 16.67l-1.005.682s-.731-6.285-3.976-4.372c-1.783 1.048-2.742 7.15-2.742 7.15l-1.417.41s4.936-13.89-3.29-11.659c-7.313 2.05-10.787 8.062-13.209 33.157 0 .182-1.416.455-1.416.455s2.102-13.663-4.114-13.345c-5.073.228-13.939 12.98-13.939 12.98h-2.01c.045-.045 23.993-26.233 8.728-30.378z" fill="#224CFF"/><path d="M24.13 14.028c1.873 0 3.839-1.73 4.387-3.871.549-2.14-.457-3.871-2.33-3.871-1.874 0-3.84 1.73-4.388 3.87-.594 2.141.457 3.872 2.33 3.872zM43.417 6.74c1.417-.546 2.377-2.186 2.148-3.643-.228-1.503-1.6-2.232-3.016-1.73-1.417.546-2.377 2.185-2.148 3.643.228 1.503 1.554 2.277 3.016 1.73zM2.286 44.588a1.13 1.13 0 01-1.143 1.138c-.64 0-1.143-.5-1.143-1.138a1.13 1.13 0 011.143-1.139c.64 0 1.143.501 1.143 1.139zm-2.149 0c0 .592.457 1.047 1.006 1.047.594 0 1.005-.455 1.005-1.047 0-.592-.411-1.048-1.005-1.048-.594 0-1.006.456-1.006 1.048zm.686-.046h.274c.183 0 .411 0 .411-.273 0-.228-.182-.273-.32-.273H.823v.546zm-.092-.637h.503c.32 0 .457.136.457.364 0 .228-.137.319-.365.364l.411.592H1.6l-.412-.592H.823v.592H.73v-1.32zM64.074 25.14c.183.046.365.046.64.046.777 0 1.462-.319 1.462-1.093S65.491 23 64.622 23h-.594v2.14h.046zm0-3.415h.548c.914 0 1.371-.365 1.371-.957s-.457-.865-1.234-.865c-.365 0-.594 0-.73.046v1.776h.045zm-1.691-2.87c.457-.09 1.325-.182 2.193-.182 1.052 0 1.692.091 2.24.41.548.274.914.82.914 1.503 0 .683-.411 1.276-1.234 1.594.868.228 1.508.911 1.508 1.868 0 .683-.32 1.23-.777 1.594-.548.455-1.462.683-2.97.683a17.44 17.44 0 01-1.874-.091v-7.379zm7.13 1.959h1.692v5.51h-1.692v-5.51zm.869-.729c-.594 0-.96-.41-.96-.91 0-.502.366-.912.96-.912s.96.41.96.911c0 .501-.366.911-.96.911zm6.122 2.961c0-.091 0-.228-.046-.319-.137-.455-.457-.774-.913-.774-.64 0-1.143.546-1.143 1.548 0 .82.411 1.458 1.097 1.458.457 0 .777-.273.914-.683.046-.137.046-.32.046-.456v-.774h.045zm1.691 2.505c0 1.047-.228 1.913-.822 2.505-.595.5-1.417.683-2.24.683-.731 0-1.462-.137-1.965-.41l.32-1.32c.365.181.96.41 1.6.41.822 0 1.416-.41 1.416-1.458v-.365c-.32.456-.868.73-1.462.73-1.371 0-2.331-1.094-2.331-2.688 0-1.776 1.142-2.915 2.514-2.915.73 0 1.234.319 1.508.774l.045-.637h1.463c-.046.364-.046.82-.046 1.64v3.05zm6.309-.411c.182.046.365.046.64.046.776 0 1.462-.319 1.462-1.093S85.92 23 85.052 23h-.549v2.14zm0-3.415h.548c.914 0 1.371-.365 1.371-.957s-.457-.865-1.234-.865c-.366 0-.594 0-.731.046v1.776h.046zm-1.692-2.87c.457-.09 1.326-.182 2.194-.182 1.051 0 1.691.091 2.24.41.548.274.914.82.914 1.503 0 .683-.412 1.276-1.234 1.594.868.228 1.508.911 1.508 1.868 0 .683-.32 1.23-.777 1.594-.548.455-1.462.683-2.97.683a17.6 17.6 0 01-1.874-.091v-7.379zm7.128 3.781c0-.82 0-1.366-.046-1.822h1.463l.046 1.048h.046c.274-.82.96-1.139 1.463-1.139.137 0 .228 0 .365.046v1.594c-.137 0-.274-.046-.457-.046-.64 0-1.051.319-1.188.866-.046.09-.046.227-.046.364v2.778h-1.692l.046-3.689zm7.224 2.596c.686 0 1.097-.683 1.097-1.64 0-.82-.32-1.639-1.097-1.639-.822 0-1.142.82-1.142 1.64 0 .91.411 1.64 1.142 1.64zm-.045 1.23c-1.6 0-2.834-1.048-2.834-2.87 0-1.776 1.188-2.914 2.925-2.914 1.691 0 2.788 1.184 2.788 2.823.046 2.05-1.417 2.96-2.88 2.96zm6.262-7.151v1.503h1.234v1.275h-1.234v2.004c0 .683.183.957.686.957.228 0 .365 0 .502-.046v1.32c-.228.092-.64.137-1.097.137-.548 0-1.005-.182-1.28-.455-.32-.319-.457-.865-.457-1.64V22.09h-.731v-1.275h.731v-1.047l1.646-.456zm2.736-1.001h1.691v3.142c.183-.228.411-.456.686-.592a2.05 2.05 0 01.868-.228c1.097 0 1.92.774 1.92 2.414v3.279h-1.691v-3.052c0-.728-.229-1.23-.869-1.23-.457 0-.731.274-.868.593-.046.09-.046.227-.046.364v3.325h-1.691v-8.016zm10.29 4.645c0-.41-.182-1.139-.959-1.139-.732 0-1.006.684-1.052 1.139h2.011zm-2.011 1.139c.046.728.732 1.047 1.554 1.047a5.01 5.01 0 001.509-.228l.228 1.184c-.548.228-1.234.365-1.965.365-1.874 0-2.925-1.093-2.925-2.824 0-1.412.868-2.96 2.788-2.96 1.782 0 2.468 1.412 2.468 2.778 0 .273-.046.547-.046.683l-3.611-.045zm5.072-1.458c0-.82 0-1.366-.046-1.822h1.463l.045 1.048h.046c.274-.82.96-1.139 1.463-1.139.137 0 .228 0 .365.046v1.594c-.137 0-.274-.046-.457-.046-.64 0-1.051.319-1.188.866 0 .09-.046.227-.046.364v2.778h-1.691l.046-3.689zm4.705 2.232c.32.182.96.41 1.462.41.503 0 .732-.183.732-.456s-.183-.41-.777-.637c-1.143-.365-1.6-1.002-1.554-1.64 0-1.048.868-1.822 2.239-1.822.64 0 1.189.137 1.555.319l-.275 1.184a2.64 2.64 0 00-1.188-.319c-.412 0-.64.183-.64.456s.228.41.868.637c1.052.365 1.463.911 1.463 1.686 0 1.047-.777 1.776-2.377 1.776-.731 0-1.371-.182-1.783-.41l.275-1.184zm9.78.272c.183.046.365.046.64.046.776 0 1.462-.319 1.462-1.093S135.369 23 134.501 23h-.594v2.14h.046zm0-3.415h.548c.914 0 1.371-.365 1.371-.957s-.457-.865-1.234-.865c-.365 0-.594 0-.731.046v1.776h.046zm-1.691-2.87c.457-.09 1.325-.182 2.193-.182 1.052 0 1.691.091 2.24.41.548.274.914.82.914 1.503 0 .683-.411 1.276-1.234 1.594.868.228 1.508.911 1.508 1.868 0 .683-.32 1.23-.777 1.594-.548.455-1.462.683-2.97.683a17.6 17.6 0 01-1.874-.091v-7.379zm7.126 1.959h1.692v5.51h-1.692v-5.51zm.869-.729c-.594 0-.96-.41-.96-.91 0-.502.366-.912.96-.912s.96.41.96.911c0 .501-.366.911-.96.911zm6.13 2.961c0-.091 0-.228-.046-.319-.137-.455-.457-.774-.914-.774-.64 0-1.142.546-1.142 1.548 0 .82.411 1.458 1.097 1.458.457 0 .777-.273.914-.683.045-.137.045-.32.045-.456v-.774h.046zm1.691 2.505c0 1.047-.228 1.913-.823 2.505-.594.5-1.416.683-2.239.683-.731 0-1.463-.137-1.965-.41l.32-1.32c.365.181.959.41 1.599.41.823 0 1.417-.41 1.417-1.458v-.365c-.32.456-.868.73-1.462.73-1.371 0-2.331-1.094-2.331-2.688 0-1.776 1.142-2.915 2.513-2.915.732 0 1.234.319 1.509.774l.045-.637h1.463c-.046.364-.046.82-.046 1.64v3.05zm4.66-.957a4.577 4.577 0 001.919.455c.777 0 1.189-.319 1.189-.82 0-.455-.366-.728-1.28-1.047-1.28-.455-2.102-1.139-2.102-2.277 0-1.321 1.097-2.278 2.879-2.278.868 0 1.462.183 1.919.365l-.365 1.366a3.491 3.491 0 00-1.554-.364c-.731 0-1.097.364-1.097.729 0 .5.411.683 1.417 1.093 1.325.5 1.965 1.184 1.965 2.277 0 1.275-.96 2.368-3.062 2.368-.868 0-1.737-.228-2.148-.455l.32-1.412zm6.305-3.78h1.692v5.51h-1.692v-5.51zm.823-.729c-.594 0-.96-.41-.96-.91 0-.502.366-.912.96-.912s.96.41.96.911c.046.501-.32.911-.96.911zm2.654 4.783c.32.182.96.41 1.463.41.503 0 .731-.183.731-.456s-.182-.41-.777-.637c-1.142-.365-1.599-1.002-1.554-1.64 0-1.048.869-1.822 2.24-1.822.64 0 1.189.137 1.554.319l-.274 1.184a2.644 2.644 0 00-1.189-.319c-.411 0-.639.183-.639.456s.228.41.868.637c1.051.365 1.463.911 1.463 1.686 0 1.047-.777 1.776-2.377 1.776-.732 0-1.372-.182-1.783-.41l.274-1.184zm7.173-5.557v1.503h1.235v1.275h-1.235v2.004c0 .683.183.957.686.957.229 0 .366 0 .503-.046v1.32c-.229.092-.64.137-1.097.137-.549 0-1.006-.182-1.28-.455-.32-.319-.457-.865-.457-1.64V22.09h-.732v-1.275h.732v-1.047l1.645-.456zm5.941 3.644c0-.41-.183-1.139-.96-1.139-.731 0-1.005.684-1.051 1.139h2.011zm-2.011 1.139c.046.728.731 1.047 1.554 1.047.594 0 1.051-.091 1.508-.228l.229 1.184c-.549.228-1.234.365-1.966.365-1.873 0-2.925-1.093-2.925-2.824 0-1.412.869-2.96 2.788-2.96 1.783 0 2.468 1.412 2.468 2.778 0 .273-.046.547-.046.683l-3.61-.045zm5.071-1.458c0-.82 0-1.366-.046-1.822h1.463l.046 1.048h.046c.274-.82.96-1.139 1.462-1.139.137 0 .229 0 .366.046v1.594c-.137 0-.274-.046-.457-.046-.64 0-1.051.319-1.189.866 0 .09-.045.227-.045.364v2.778h-1.692l.046-3.689zm4.662 2.232c.32.182.96.41 1.463.41.503 0 .731-.183.731-.456s-.182-.41-.777-.637c-1.142-.365-1.6-1.002-1.554-1.64 0-1.048.869-1.822 2.24-1.822.64 0 1.188.137 1.554.319l-.274 1.184a2.644 2.644 0 00-1.189-.319c-.411 0-.64.183-.64.456s.229.41.869.637c1.051.365 1.463.911 1.463 1.686 0 1.047-.777 1.776-2.377 1.776-.732 0-1.372-.182-1.783-.41l.274-1.184zm10.603.364c.685 0 1.096-.683 1.096-1.64 0-.82-.32-1.639-1.096-1.639-.823 0-1.143.82-1.143 1.64.046.91.457 1.64 1.143 1.64zm0 1.23c-1.6 0-2.834-1.048-2.834-2.87 0-1.776 1.188-2.914 2.925-2.914 1.691 0 2.788 1.184 2.788 2.823 0 2.05-1.417 2.96-2.879 2.96zm4.569-.137v-4.282h-.731v-1.275h.731v-.228c0-.683.183-1.412.686-1.867.457-.41 1.006-.546 1.508-.546.366 0 .64.045.915.09l-.046 1.321a1.712 1.712 0 00-.549-.09c-.548 0-.777.455-.777 1.001v.273h1.097v1.276h-1.097v4.326h-1.737zm8.55-4.235h.685c.869 0 1.371-.41 1.371-1.094 0-.683-.457-1.047-1.279-1.047-.412 0-.64.045-.777.045v2.095zm-1.691-3.235a14.43 14.43 0 012.285-.182c1.142 0 1.919.183 2.468.592.457.365.685.911.685 1.595 0 .956-.685 1.64-1.325 1.867v.045c.548.228.823.73 1.005 1.412.229.866.457 1.868.595 2.14h-1.737c-.092-.227-.32-.819-.503-1.775-.228-.957-.548-1.23-1.234-1.23h-.503v3.006h-1.691v-7.47h-.045zm12.159 5.694c0 .728 0 1.32.046 1.776h-1.463l-.091-.774h-.046c-.228.318-.731.91-1.737.91-1.142 0-1.919-.683-1.919-2.413v-3.234h1.691v2.96c0 .82.274 1.276.868 1.276.457 0 .732-.32.869-.593.045-.09.045-.227.045-.364v-3.279h1.691v3.735h.046zm1.779.319c.32.182.96.41 1.463.41.503 0 .731-.183.731-.456s-.183-.41-.777-.637c-1.143-.365-1.6-1.002-1.554-1.64 0-1.048.868-1.822 2.24-1.822.64 0 1.188.137 1.554.319l-.274 1.184a2.648 2.648 0 00-1.189-.319c-.411 0-.64.183-.64.456s.229.41.869.637c1.051.365 1.462.911 1.462 1.686 0 1.047-.777 1.776-2.376 1.776-.732 0-1.372-.182-1.783-.41l.274-1.184zm5.211 0c.32.182.96.41 1.463.41.503 0 .731-.183.731-.456s-.183-.41-.777-.637c-1.143-.365-1.6-1.002-1.554-1.64 0-1.048.868-1.822 2.24-1.822.64 0 1.188.137 1.554.319l-.274 1.184a2.648 2.648 0 00-1.189-.319c-.411 0-.64.183-.64.456s.229.41.869.637c1.051.365 1.462.911 1.462 1.686 0 1.047-.777 1.776-2.377 1.776-.731 0-1.371-.182-1.782-.41l.274-1.184zm5.302-4.054h1.691v5.51h-1.691v-5.51zm.868-.729c-.594 0-.96-.41-.96-.91 0-.502.366-.912.96-.912s.96.41.96.911c0 .501-.366.911-.96.911zm5.531 3.645c-.915 0-1.6.227-1.6.864 0 .456.274.638.685.638.412 0 .777-.273.869-.638.046-.09.046-.182.046-.273v-.592zm1.645 1.274c0 .501 0 1.048.092 1.321h-1.555l-.091-.546h-.046c-.365.455-.914.683-1.554.683-1.097 0-1.783-.82-1.783-1.685 0-1.412 1.28-2.095 3.246-2.095v-.046c0-.273-.137-.729-1.006-.729-.548 0-1.143.183-1.508.41l-.32-1.093c.365-.228 1.143-.5 2.148-.5 1.829 0 2.423 1.092 2.423 2.367v1.913h-.046zM67.505 39.123c-.366.182-1.052.365-1.92.365-1.737 0-3.382-1.093-3.382-3.69 0-2.14 1.371-3.78 3.656-3.78.914 0 1.463.182 1.646.32l-.183.409c-.366-.182-.869-.319-1.508-.319-1.92 0-3.108 1.276-3.108 3.37 0 1.959 1.097 3.234 3.062 3.234a4.16 4.16 0 001.6-.319l.137.41zm4.022-4.918v.455h-1.645v4.691h-.503V34.66h-1.692v-.455h3.84zm3.973 2.413c-1.143-.045-2.605.137-2.605 1.367 0 .729.502 1.093 1.005 1.093.869 0 1.326-.547 1.509-1.048.045-.09.045-.227.045-.319v-1.093h.046zm.549 1.503c0 .41 0 .82.091 1.23h-.457l-.091-.729c-.275.41-.823.866-1.646.866-1.051 0-1.508-.729-1.508-1.412 0-1.184 1.05-1.913 3.108-1.867v-.137c0-.501-.092-1.503-1.326-1.503-.457 0-.914.137-1.28.364l-.137-.364c.457-.319 1.052-.456 1.509-.456 1.462 0 1.782 1.094 1.782 2.05v1.958h-.045zm2.331-.774c0 .137 0 .273.046.41.229.774.915 1.32 1.692 1.32 1.188 0 1.828-.956 1.828-2.322 0-1.139-.64-2.186-1.783-2.186-.731 0-1.462.5-1.691 1.366a1.613 1.613 0 00-.091.456v.956zm-.502-1.503c0-.638 0-1.139-.046-1.64h.503l.046.957c.365-.683 1.005-1.093 1.92-1.093 1.325 0 2.194 1.093 2.194 2.596 0 1.822-1.098 2.778-2.332 2.778-.731 0-1.371-.319-1.737-.956v2.96h-.502v-5.602h-.046zm6.672-1.639v4.736h2.102v-4.736h.548v4.736h2.057v-4.736h.548v5.146h-5.758v-5.146h.503zm7.631 0v2.55c0 .82 0 1.275-.045 2.05.365-.638.548-1.002.96-1.64l1.965-2.96h.549v5.146h-.503v-2.55c0-.866 0-1.367.046-2.05a24.513 24.513 0 01-1.052 1.73 104.74 104.74 0 00-1.92 2.87h-.548v-5.146h.548zm8.779 2.141c0-.73-.274-1.822-1.508-1.822-1.143 0-1.6 1.002-1.691 1.822h3.199zm-3.245.41c0 1.639.914 2.277 1.965 2.277.732 0 1.143-.137 1.418-.274l.137.41c-.183.091-.732.319-1.6.319-1.463 0-2.377-1.093-2.377-2.596 0-1.73.96-2.778 2.285-2.778 1.692 0 2.012 1.594 2.012 2.323v.318h-3.84zm8.768 2.185c.229.046.503.046.869.046.685 0 1.371-.228 1.783-.683.274-.319.411-.683.411-1.23 0-.683-.274-1.138-.731-1.412-.412-.273-.96-.364-1.555-.364-.228 0-.594 0-.822.045v3.598h.045zm3.109-6.831v.41h-3.063v2.414c.229-.046.686-.046.914-.046.64 0 1.28.137 1.737.41.594.319.96.91.96 1.776 0 .683-.228 1.139-.548 1.503-.549.547-1.417.774-2.332.774-.548 0-.96-.045-1.28-.045V32.11h3.612zm2.519 5.237c0 .137 0 .273.046.41.228.774.914 1.32 1.691 1.32 1.189 0 1.828-.956 1.828-2.322 0-1.139-.639-2.186-1.782-2.186-.732 0-1.463.5-1.692 1.366a1.637 1.637 0 00-.091.456v.956zm-.503-1.503c0-.638 0-1.139-.046-1.64h.503l.046.957c.366-.683 1.006-1.093 1.92-1.093 1.326 0 2.194 1.093 2.194 2.596 0 1.822-1.097 2.778-2.331 2.778-.732 0-1.372-.319-1.737-.956v2.96h-.503v-5.602h-.046zm8.91.775c-1.097-.046-2.605.136-2.605 1.366 0 .729.503 1.093 1.006 1.093.868 0 1.325-.546 1.508-1.047.046-.091.046-.228.046-.32V36.62h.045zm.503 1.503c0 .41 0 .82.092 1.23h-.457l-.092-.73c-.274.41-.823.866-1.645.866-1.052 0-1.509-.729-1.509-1.412 0-1.184 1.052-1.913 3.108-1.867v-.137c0-.5-.091-1.503-1.325-1.503-.457 0-.914.137-1.28.365l-.183-.365c.457-.319 1.051-.455 1.509-.455 1.462 0 1.782 1.093 1.782 2.05v1.958zm4.889-3.917v.455h-1.646v4.691h-.502V34.66h-1.692v-.455h3.84zm1.78 4.781c.229 0 .457.046.777.046.823 0 1.875-.274 1.875-1.276 0-1.047-1.098-1.275-1.92-1.275a4.4 4.4 0 00-.777.046v2.459h.045zm0-4.782v1.867c.229-.045.595-.045.869-.045 1.143 0 2.331.364 2.331 1.73 0 .456-.183.775-.411 1.048-.503.5-1.372.592-2.103.592-.457 0-.869-.046-1.188-.046v-5.146h.502zm7.449.411c-.274-.046-.548-.046-.914-.046-.686 0-1.646.182-1.646 1.048 0 .774 1.006 1.047 1.6 1.047h.96v-2.05zm.503 4.736h-.503V37.03h-.914c-.411 0-.686.09-.914.227-.457.319-.594 1.093-.823 1.64-.091.182-.137.319-.229.41h-.548c.091-.182.228-.365.32-.592.274-.547.32-1.23.868-1.64.138-.091.32-.182.549-.228-.731-.09-1.371-.5-1.371-1.275 0-.455.228-.82.548-1.047.412-.274.96-.365 1.6-.365.503 0 1.006.046 1.463.091v5.101h-.046zm9.784-.228c-.365.182-1.051.364-1.919.364-1.737 0-3.382-1.093-3.382-3.689 0-2.14 1.371-3.78 3.656-3.78.914 0 1.463.182 1.645.319l-.182.41c-.366-.183-.869-.32-1.509-.32-1.919 0-3.107 1.276-3.107 3.371 0 1.958 1.097 3.234 3.062 3.234.594 0 1.188-.137 1.599-.32l.137.41zm3.976-4.918v.455h-1.645v4.691h-.503V34.66h-1.692v-.455h3.84zm4.019 2.415c-1.143-.046-2.606.136-2.606 1.366 0 .728.503 1.093 1.006 1.093.868 0 1.326-.547 1.508-1.048.046-.091.046-.228.046-.319V36.62h.046zm.503 1.502c0 .41 0 .82.091 1.23h-.457l-.091-.729c-.275.41-.823.866-1.646.866-1.051 0-1.509-.73-1.509-1.412 0-1.184 1.052-1.913 3.109-1.868v-.136c0-.501-.092-1.503-1.326-1.503-.457 0-.914.136-1.28.364l-.183-.364c.458-.32 1.052-.456 1.509-.456 1.463 0 1.783 1.093 1.783 2.05v1.958zm2.377-.775c0 .136 0 .273.046.41.229.774.914 1.32 1.691 1.32 1.189 0 1.829-.956 1.829-2.322 0-1.14-.64-2.187-1.783-2.187-.731 0-1.463.501-1.691 1.367a1.604 1.604 0 00-.092.455v.957zm-.548-1.503c0-.638 0-1.139-.046-1.64h.503l.046.956c.365-.683 1.005-1.093 1.919-1.093 1.326 0 2.195 1.093 2.195 2.596 0 1.822-1.098 2.779-2.332 2.779-.731 0-1.371-.32-1.737-.957v2.96h-.503v-5.601h-.045zm6.717-1.639v4.736h2.103v-4.736h.502v4.736h2.103v-4.736h.502v5.146h-5.758v-5.146h.548zm7.586-.001v2.55c0 .82 0 1.276-.045 2.05.365-.638.548-1.002.96-1.64l1.965-2.96h.549v5.146h-.503V36.8c0-.865 0-1.366.046-2.05a24.614 24.614 0 01-1.052 1.731 105.04 105.04 0 00-1.92 2.87h-.548v-5.147h.548zm8.779 2.141c0-.729-.274-1.822-1.508-1.822-1.143 0-1.6 1.002-1.691 1.822h3.199zm-3.245.41c0 1.64.914 2.277 1.966 2.277.731 0 1.142-.136 1.417-.273l.137.41c-.183.09-.732.319-1.6.319-1.463 0-2.377-1.093-2.377-2.596 0-1.731.96-2.779 2.285-2.779 1.692 0 2.012 1.594 2.012 2.323v.319h-3.84zm13.161 2.368c-.366.182-1.051.364-1.92.364-1.737 0-3.382-1.093-3.382-3.689 0-2.14 1.371-3.78 3.656-3.78.914 0 1.463.182 1.646.319l-.183.41c-.366-.183-.868-.32-1.508-.32-1.92 0-3.108 1.276-3.108 3.371 0 1.958 1.097 3.234 3.062 3.234.594 0 1.188-.137 1.6-.32l.137.41zm4.661-2.778c0-.729-.274-1.822-1.508-1.822-1.143 0-1.6 1.002-1.691 1.822h3.199zm-3.291.41c0 1.64.914 2.277 1.966 2.277.731 0 1.143-.136 1.417-.273l.137.41c-.183.09-.731.319-1.6.319-1.463 0-2.377-1.093-2.377-2.596 0-1.731.96-2.779 2.286-2.779 1.691 0 2.011 1.594 2.011 2.323v.319h-3.84zm9 2.368c-.228.09-.777.318-1.508.318-1.463 0-2.468-1.093-2.468-2.641 0-1.64 1.097-2.733 2.651-2.733.64 0 1.143.182 1.325.319l-.182.41a2.327 2.327 0 00-1.189-.319c-1.371 0-2.057 1.048-2.057 2.277 0 1.367.823 2.232 2.011 2.232.595 0 1.006-.182 1.28-.319l.137.456zm4.894-4.918v.455h-1.691v4.691h-.503V34.66h-1.645v-.455h3.839zm1.784 3.142c0 .137 0 .273.045.41.229.774.914 1.32 1.692 1.32 1.188 0 1.828-.956 1.828-2.322 0-1.139-.64-2.186-1.783-2.186-.731 0-1.462.5-1.691 1.366a1.602 1.602 0 00-.091.456v.956zm-.503-1.503c0-.638 0-1.139-.046-1.64h.503l.046.957c.365-.683 1.005-1.093 1.919-1.093 1.326 0 2.195 1.093 2.195 2.596 0 1.822-1.098 2.778-2.332 2.778-.731 0-1.371-.319-1.737-.956v2.96h-.503v-5.602h-.045zm10.88 3.506h-.503v-5.146h.503v5.147zm-4.206-.41c.229.046.458.046.732.046.823 0 1.737-.364 1.737-1.275 0-1.002-.869-1.275-1.692-1.275-.274 0-.548 0-.777.045v2.46zm0-4.736v1.867c.183-.045.503-.045.823-.045 1.097 0 2.149.455 2.149 1.685 0 .456-.183.82-.412 1.093-.503.501-1.28.592-1.92.592-.457 0-.868-.045-1.188-.045v-5.147h.548zm9.595 1.593c.229.091.549.091.915.091 1.279 0 2.057-.637 2.057-1.776s-.823-1.64-1.966-1.64c-.457 0-.823.046-1.006.091v3.234zm-.503-3.598c.412-.091.96-.136 1.555-.136.868 0 1.508.227 1.92.592.365.318.548.82.548 1.411 0 .638-.183 1.093-.503 1.458-.457.546-1.234.82-2.102.82-.32 0-.64 0-.869-.091v3.097h-.503V32.2h-.046zm7.362 6.831c1.051 0 1.92-.956 1.92-2.277 0-.956-.503-2.231-1.874-2.231-1.326 0-1.92 1.184-1.92 2.277 0 1.275.822 2.231 1.874 2.231zm-.046.456c-1.325 0-2.331-1.048-2.331-2.642 0-1.776 1.143-2.732 2.423-2.732 1.417 0 2.377 1.093 2.377 2.641 0 1.913-1.326 2.733-2.469 2.733zm7.634-.364c-.229.091-.777.32-1.508.32-1.463 0-2.469-1.094-2.469-2.642 0-1.64 1.097-2.733 2.651-2.733.64 0 1.143.182 1.326.319l-.183.41a2.324 2.324 0 00-1.188-.32c-1.372 0-2.057 1.048-2.057 2.278 0 1.366.823 2.232 2.011 2.232.594 0 1.006-.182 1.28-.32l.137.456zm4.793 0c-.229.091-.777.32-1.508.32-1.463 0-2.469-1.094-2.469-2.642 0-1.64 1.097-2.733 2.651-2.733.64 0 1.143.182 1.326.319l-.183.41a2.324 2.324 0 00-1.188-.32c-1.372 0-2.057 1.048-2.057 2.278 0 1.366.822 2.232 2.011 2.232.594 0 1.006-.182 1.28-.32l.137.456zm1.923-4.918v2.55c0 .82 0 1.276-.046 2.05.366-.638.549-1.002.96-1.64l1.966-2.96h.549v5.147h-.503V36.8c0-.866 0-1.367.045-2.05a24.26 24.26 0 01-1.051 1.73 105.35 105.35 0 00-1.92 2.87h-.548v-5.147h.548zm5.844 0v2.55c0 .82 0 1.276-.046 2.05.366-.638.549-1.002.96-1.64l1.966-2.96H252v5.147h-.503V36.8c0-.866 0-1.367.046-2.05a24.26 24.26 0 01-1.051 1.73 105.35 105.35 0 00-1.92 2.87h-.549v-5.147h.549z" fill="#224CFF"/></svg>