<svg width="413" height="169" fill="none" xmlns="http://www.w3.org/2000/svg"><path d="M37.54 57a.554.554 0 00-.554.554v55.892c0 .306.248.554.555.554h26.925c15.74 0 28.5-12.76 28.5-28.5S80.206 57 64.466 57H37.541z" fill="#FF8585"/><ellipse cx="181.435" cy="84.5" rx="84.47" ry="84.5" fill="#F8D162"/><ellipse cx="15.994" cy="86" rx="15.994" ry="16" fill="#C8D1FF"/><rect width="82.114" height="82.114" rx="3" transform="rotate(45.01 143.95 442.24)" fill="#C8D1FF"/><path fill-rule="evenodd" clip-rule="evenodd" d="M243.235 60.742c1.21-1.132 1.21-2.967 0-4.1L229.557 43.85c-1.21-1.131-3.171-1.131-4.381 0l-59.561 55.713-23.126-20.508c-1.24-1.1-3.201-1.047-4.38.116l-13.3 13.123c-1.18 1.163-1.131 2.998.109 4.097l36.027 31.949 2.82 2.638c1.21 1.132 3.172 1.132 4.382 0l75.088-70.236z" fill="#fff"/><ellipse cx="281.4" cy="86.5" rx="11.496" ry="11.5" fill="#8CDD94"/></svg>