<svg width="279" height="174" fill="none" xmlns="http://www.w3.org/2000/svg"><rect width="123.445" height="121.575" rx="3" transform="rotate(45.003 60.775 146.715)" fill="#F8D162"/><path d="M123.285 52.382c-28.212-1.39-47.599 22.186-53.766 34.148 6.745 11.962 26.941 35.538 53.766 34.149 26.826-1.39 44.709-23.345 50.298-34.149-5.011-10.804-22.085-32.76-50.298-34.148z" fill="#fff"/><ellipse cx="121.555" cy="86.53" rx="24.281" ry="24.309" fill="#FF8585"/><rect width="50.943" height="50.943" rx="3" transform="rotate(-45.033 263.618 -165.548)" fill="#FF8585"/><rect y="110.62" width="58.994" height="57.059" rx="28.53" fill="#8CDD94"/><rect width="26.963" height="26.992" rx="13.481" transform="rotate(8.345 -45.47 1323.298) skewX(.019)" fill="#8CDD94"/><path d="M245.971 38.339a.444.444 0 01.628 0l31.089 31.124a.444.444 0 010 .629l-15.544 15.562c-8.759 8.769-22.959 8.769-31.717 0-8.759-8.768-8.759-22.985 0-31.753l15.544-15.562z" fill="#C8D1FF"/></svg>